<svg width="688" height="52" viewBox="0 0 688 52" fill="none" xmlns="http://www.w3.org/2000/svg">
<path d="M0.875 16.35C1.19167 16.5667 1.625 16.775 2.175 16.975C2.74167 17.1583 3.40833 17.25 4.175 17.25C4.95833 17.25 5.6 17.125 6.1 16.875C6.6 16.6083 6.98333 16.2167 7.25 15.7C7.51667 15.1667 7.7 14.4917 7.8 13.675C7.9 12.8583 7.95 11.8917 7.95 10.775V1.25H10.2V10.275C10.2 11.5917 10.1333 12.8 10 13.9C9.86667 15 9.6 15.9583 9.2 16.775C8.8 17.575 8.2 18.1917 7.4 18.625C6.61667 19.0583 5.56667 19.275 4.25 19.275C3.41667 19.275 2.68333 19.1833 2.05 19C1.41667 18.8167 0.833333 18.5417 0.3 18.175L0.875 16.35ZM19.3891 19.25C18.4057 19.25 17.5141 19.075 16.7141 18.725C15.9141 18.3583 15.2224 17.8667 14.6391 17.25C14.0557 16.6167 13.6057 15.8917 13.2891 15.075C12.9724 14.2583 12.8141 13.4 12.8141 12.5C12.8141 11.5833 12.9724 10.7167 13.2891 9.9C13.6057 9.08333 14.0557 8.36667 14.6391 7.75C15.2224 7.11667 15.9141 6.625 16.7141 6.275C17.5307 5.90833 18.4224 5.725 19.3891 5.725C20.3724 5.725 21.2641 5.90833 22.0641 6.275C22.8641 6.625 23.5557 7.11667 24.1391 7.75C24.7391 8.36667 25.1974 9.08333 25.5141 9.9C25.8307 10.7167 25.9891 11.5833 25.9891 12.5C25.9891 13.4 25.8307 14.2583 25.5141 15.075C25.1974 15.8917 24.7474 16.6167 24.1641 17.25C23.5807 17.8667 22.8807 18.3583 22.0641 18.725C21.2641 19.075 20.3724 19.25 19.3891 19.25ZM15.0641 12.525C15.0641 13.425 15.2557 14.2417 15.6391 14.975C16.0391 15.7083 16.5641 16.2917 17.2141 16.725C17.8641 17.1417 18.5891 17.35 19.3891 17.35C20.1891 17.35 20.9141 17.1333 21.5641 16.7C22.2307 16.2667 22.7557 15.6833 23.1391 14.95C23.5391 14.2 23.7391 13.375 23.7391 12.475C23.7391 11.575 23.5391 10.7583 23.1391 10.025C22.7557 9.29167 22.2307 8.70833 21.5641 8.275C20.9141 7.84167 20.1891 7.625 19.3891 7.625C18.5891 7.625 17.8641 7.85 17.2141 8.3C16.5641 8.73333 16.0391 9.31667 15.6391 10.05C15.2557 10.7833 15.0641 11.6083 15.0641 12.525ZM28.6549 19V5.95H30.8549V19H28.6549ZM28.6549 3.5V0.75H30.8549V3.5H28.6549ZM45.7416 19H43.5416V11.7C43.5416 10.3167 43.3249 9.30833 42.8916 8.675C42.4749 8.025 41.8333 7.7 40.9666 7.7C40.3666 7.7 39.7666 7.85 39.1666 8.15C38.5833 8.45 38.0583 8.85833 37.5916 9.375C37.1416 9.875 36.8166 10.4583 36.6166 11.125V19H34.4166V5.95H36.4166V8.75C36.7666 8.13333 37.2166 7.6 37.7666 7.15C38.3166 6.7 38.9416 6.35 39.6416 6.1C40.3416 5.85 41.0749 5.725 41.8416 5.725C42.5916 5.725 43.2166 5.86667 43.7166 6.15C44.2333 6.41667 44.6333 6.8 44.9166 7.3C45.2166 7.78333 45.4249 8.35833 45.5416 9.025C45.6749 9.69167 45.7416 10.4167 45.7416 11.2V19ZM62.2359 18.35C62.0526 18.4333 61.8026 18.5417 61.4859 18.675C61.1693 18.8083 60.8026 18.925 60.3859 19.025C59.9693 19.125 59.5276 19.175 59.0609 19.175C58.5276 19.175 58.0359 19.0833 57.5859 18.9C57.1359 18.7 56.7776 18.4 56.5109 18C56.2443 17.5833 56.1109 17.0667 56.1109 16.45V7.675H54.3359V5.95H56.1109V1.6H58.3109V5.95H61.2359V7.675H58.3109V15.775C58.3443 16.2417 58.5026 16.5917 58.7859 16.825C59.0693 17.0417 59.4026 17.15 59.7859 17.15C60.2193 17.15 60.6193 17.075 60.9859 16.925C61.3526 16.775 61.5943 16.6667 61.7109 16.6L62.2359 18.35ZM75.6 19H73.4V11.7C73.4 10.3667 73.1583 9.36667 72.675 8.7C72.2083 8.03333 71.5333 7.7 70.65 7.7C70.0833 7.7 69.5083 7.85 68.925 8.15C68.3583 8.45 67.8583 8.85833 67.425 9.375C66.9917 9.875 66.675 10.4583 66.475 11.125V19H64.275V0.75H66.475V8.75C66.9917 7.81667 67.6917 7.08333 68.575 6.55C69.475 6 70.4417 5.725 71.475 5.725C72.2583 5.725 72.9083 5.86667 73.425 6.15C73.9583 6.41667 74.3833 6.8 74.7 7.3C75.0167 7.8 75.2417 8.38333 75.375 9.05C75.525 9.7 75.6 10.4167 75.6 11.2V19ZM84.7961 19.25C83.8128 19.25 82.9128 19.075 82.0961 18.725C81.2961 18.3583 80.5961 17.8667 79.9961 17.25C79.4128 16.6167 78.9544 15.8917 78.6211 15.075C78.3044 14.2583 78.1461 13.3917 78.1461 12.475C78.1461 11.2417 78.4294 10.1167 78.9961 9.1C79.5628 8.08333 80.3461 7.26667 81.3461 6.65C82.3628 6.03333 83.5211 5.725 84.8211 5.725C86.1378 5.725 87.2794 6.04167 88.2461 6.675C89.2294 7.29167 89.9878 8.10833 90.5211 9.125C91.0711 10.125 91.3461 11.2083 91.3461 12.375C91.3461 12.5417 91.3378 12.7083 91.3211 12.875C91.3211 13.025 91.3128 13.1417 91.2961 13.225H80.4711C80.5378 14.075 80.7711 14.8333 81.1711 15.5C81.5878 16.15 82.1211 16.6667 82.7711 17.05C83.4211 17.4167 84.1211 17.6 84.8711 17.6C85.6711 17.6 86.4211 17.4 87.1211 17C87.8378 16.6 88.3294 16.075 88.5961 15.425L90.4961 15.95C90.2128 16.5833 89.7878 17.15 89.2211 17.65C88.6711 18.15 88.0128 18.5417 87.2461 18.825C86.4961 19.1083 85.6794 19.25 84.7961 19.25ZM80.3961 11.7H89.2961C89.2294 10.85 88.9878 10.1 88.5711 9.45C88.1544 8.8 87.6211 8.29167 86.9711 7.925C86.3211 7.55833 85.6044 7.375 84.8211 7.375C84.0544 7.375 83.3461 7.55833 82.6961 7.925C82.0461 8.29167 81.5128 8.8 81.0961 9.45C80.6961 10.1 80.4628 10.85 80.3961 11.7ZM105.315 19.15C104.432 19.15 103.615 18.975 102.865 18.625C102.132 18.2583 101.498 17.7667 100.965 17.15C100.432 16.5167 100.015 15.8 99.7148 15C99.4315 14.2 99.2898 13.3667 99.2898 12.5C99.2898 11.5833 99.4315 10.7167 99.7148 9.9C100.015 9.08333 100.432 8.36667 100.965 7.75C101.515 7.11667 102.157 6.625 102.89 6.275C103.623 5.90833 104.44 5.725 105.34 5.725C106.423 5.725 107.365 5.99167 108.165 6.525C108.982 7.05833 109.665 7.73333 110.215 8.55V5.95H112.165V18.85C112.165 20.0833 111.865 21.125 111.265 21.975C110.682 22.825 109.882 23.4667 108.865 23.9C107.865 24.35 106.748 24.575 105.515 24.575C104.048 24.575 102.848 24.3167 101.915 23.8C100.982 23.2833 100.207 22.5833 99.5898 21.7L100.865 20.575C101.382 21.3417 102.048 21.9167 102.865 22.3C103.698 22.6833 104.582 22.875 105.515 22.875C106.315 22.875 107.048 22.725 107.715 22.425C108.398 22.1417 108.94 21.7 109.34 21.1C109.757 20.5 109.965 19.75 109.965 18.85V16.55C109.482 17.35 108.815 17.9833 107.965 18.45C107.132 18.9167 106.248 19.15 105.315 19.15ZM105.99 17.35C106.457 17.35 106.907 17.2667 107.34 17.1C107.773 16.9333 108.173 16.7167 108.54 16.45C108.907 16.1667 109.215 15.85 109.465 15.5C109.715 15.15 109.882 14.7917 109.965 14.425V10.675C109.732 10.075 109.398 9.55 108.965 9.1C108.532 8.63333 108.04 8.275 107.49 8.025C106.94 7.75833 106.373 7.625 105.79 7.625C105.123 7.625 104.523 7.76667 103.99 8.05C103.473 8.33333 103.032 8.71667 102.665 9.2C102.298 9.66667 102.015 10.1917 101.815 10.775C101.615 11.3583 101.515 11.95 101.515 12.55C101.515 13.2 101.632 13.8167 101.865 14.4C102.098 14.9667 102.415 15.475 102.815 15.925C103.215 16.375 103.69 16.725 104.24 16.975C104.79 17.225 105.373 17.35 105.99 17.35ZM122.615 7.875C121.515 7.89167 120.54 8.175 119.69 8.725C118.857 9.25833 118.265 10 117.915 10.95V19H115.715V5.95H117.765V8.975C118.215 8.075 118.807 7.35 119.54 6.8C120.29 6.23333 121.074 5.91667 121.89 5.85C122.057 5.85 122.199 5.85 122.315 5.85C122.432 5.85 122.532 5.85833 122.615 5.875V7.875ZM130.255 19.25C129.272 19.25 128.372 19.075 127.555 18.725C126.755 18.3583 126.055 17.8667 125.455 17.25C124.872 16.6167 124.413 15.8917 124.08 15.075C123.763 14.2583 123.605 13.3917 123.605 12.475C123.605 11.2417 123.888 10.1167 124.455 9.1C125.022 8.08333 125.805 7.26667 126.805 6.65C127.822 6.03333 128.98 5.725 130.28 5.725C131.597 5.725 132.738 6.04167 133.705 6.675C134.688 7.29167 135.447 8.10833 135.98 9.125C136.53 10.125 136.805 11.2083 136.805 12.375C136.805 12.5417 136.797 12.7083 136.78 12.875C136.78 13.025 136.772 13.1417 136.755 13.225H125.93C125.997 14.075 126.23 14.8333 126.63 15.5C127.047 16.15 127.58 16.6667 128.23 17.05C128.88 17.4167 129.58 17.6 130.33 17.6C131.13 17.6 131.88 17.4 132.58 17C133.297 16.6 133.788 16.075 134.055 15.425L135.955 15.95C135.672 16.5833 135.247 17.15 134.68 17.65C134.13 18.15 133.472 18.5417 132.705 18.825C131.955 19.1083 131.138 19.25 130.255 19.25ZM125.855 11.7H134.755C134.688 10.85 134.447 10.1 134.03 9.45C133.613 8.8 133.08 8.29167 132.43 7.925C131.78 7.55833 131.063 7.375 130.28 7.375C129.513 7.375 128.805 7.55833 128.155 7.925C127.505 8.29167 126.972 8.8 126.555 9.45C126.155 10.1 125.922 10.85 125.855 11.7ZM145.026 19.25C144.042 19.25 143.142 19.075 142.326 18.725C141.526 18.3583 140.826 17.8667 140.226 17.25C139.642 16.6167 139.184 15.8917 138.851 15.075C138.534 14.2583 138.376 13.3917 138.376 12.475C138.376 11.2417 138.659 10.1167 139.226 9.1C139.792 8.08333 140.576 7.26667 141.576 6.65C142.592 6.03333 143.751 5.725 145.051 5.725C146.367 5.725 147.509 6.04167 148.476 6.675C149.459 7.29167 150.217 8.10833 150.751 9.125C151.301 10.125 151.576 11.2083 151.576 12.375C151.576 12.5417 151.567 12.7083 151.551 12.875C151.551 13.025 151.542 13.1417 151.526 13.225H140.701C140.767 14.075 141.001 14.8333 141.401 15.5C141.817 16.15 142.351 16.6667 143.001 17.05C143.651 17.4167 144.351 17.6 145.101 17.6C145.901 17.6 146.651 17.4 147.351 17C148.067 16.6 148.559 16.075 148.826 15.425L150.726 15.95C150.442 16.5833 150.017 17.15 149.451 17.65C148.901 18.15 148.242 18.5417 147.476 18.825C146.726 19.1083 145.909 19.25 145.026 19.25ZM140.626 11.7H149.526C149.459 10.85 149.217 10.1 148.801 9.45C148.384 8.8 147.851 8.29167 147.201 7.925C146.551 7.55833 145.834 7.375 145.051 7.375C144.284 7.375 143.576 7.55833 142.926 7.925C142.276 8.29167 141.742 8.8 141.326 9.45C140.926 10.1 140.692 10.85 140.626 11.7ZM165.346 19H163.146V11.7C163.146 10.3167 162.929 9.30833 162.496 8.675C162.079 8.025 161.438 7.7 160.571 7.7C159.971 7.7 159.371 7.85 158.771 8.15C158.188 8.45 157.663 8.85833 157.196 9.375C156.746 9.875 156.421 10.4583 156.221 11.125V19H154.021V5.95H156.021V8.75C156.371 8.13333 156.821 7.6 157.371 7.15C157.921 6.7 158.546 6.35 159.246 6.1C159.946 5.85 160.679 5.725 161.446 5.725C162.196 5.725 162.821 5.86667 163.321 6.15C163.838 6.41667 164.238 6.8 164.521 7.3C164.821 7.78333 165.029 8.35833 165.146 9.025C165.279 9.69167 165.346 10.4167 165.346 11.2V19ZM175.44 19V1.25H183.04C183.824 1.25 184.54 1.41667 185.19 1.75C185.84 2.06667 186.407 2.5 186.89 3.05C187.374 3.58333 187.749 4.19167 188.015 4.875C188.282 5.54167 188.415 6.225 188.415 6.925C188.415 7.74167 188.257 8.51667 187.94 9.25C187.64 9.98333 187.207 10.6083 186.64 11.125C186.09 11.6417 185.44 12 184.69 12.2L188.99 19H186.44L182.39 12.625H177.69V19H175.44ZM177.69 10.625H183.065C183.682 10.625 184.215 10.4583 184.665 10.125C185.132 9.775 185.49 9.31667 185.74 8.75C186.007 8.18333 186.14 7.575 186.14 6.925C186.14 6.25833 185.99 5.65 185.69 5.1C185.39 4.53333 184.999 4.08333 184.515 3.75C184.032 3.41667 183.499 3.25 182.915 3.25H177.69V10.625ZM196.881 19.25C195.898 19.25 194.998 19.075 194.181 18.725C193.381 18.3583 192.681 17.8667 192.081 17.25C191.498 16.6167 191.039 15.8917 190.706 15.075C190.389 14.2583 190.231 13.3917 190.231 12.475C190.231 11.2417 190.514 10.1167 191.081 9.1C191.648 8.08333 192.431 7.26667 193.431 6.65C194.448 6.03333 195.606 5.725 196.906 5.725C198.223 5.725 199.364 6.04167 200.331 6.675C201.314 7.29167 202.073 8.10833 202.606 9.125C203.156 10.125 203.431 11.2083 203.431 12.375C203.431 12.5417 203.423 12.7083 203.406 12.875C203.406 13.025 203.398 13.1417 203.381 13.225H192.556C192.623 14.075 192.856 14.8333 193.256 15.5C193.673 16.15 194.206 16.6667 194.856 17.05C195.506 17.4167 196.206 17.6 196.956 17.6C197.756 17.6 198.506 17.4 199.206 17C199.923 16.6 200.414 16.075 200.681 15.425L202.581 15.95C202.298 16.5833 201.873 17.15 201.306 17.65C200.756 18.15 200.098 18.5417 199.331 18.825C198.581 19.1083 197.764 19.25 196.881 19.25ZM192.481 11.7H201.381C201.314 10.85 201.073 10.1 200.656 9.45C200.239 8.8 199.706 8.29167 199.056 7.925C198.406 7.55833 197.689 7.375 196.906 7.375C196.139 7.375 195.431 7.55833 194.781 7.925C194.131 8.29167 193.598 8.8 193.181 9.45C192.781 10.1 192.548 10.85 192.481 11.7ZM209.285 19L204.16 5.95H206.46L210.56 16.9L214.66 5.95H216.81L211.685 19H209.285ZM224.272 19.25C223.289 19.25 222.397 19.075 221.597 18.725C220.797 18.3583 220.105 17.8667 219.522 17.25C218.939 16.6167 218.489 15.8917 218.172 15.075C217.855 14.2583 217.697 13.4 217.697 12.5C217.697 11.5833 217.855 10.7167 218.172 9.9C218.489 9.08333 218.939 8.36667 219.522 7.75C220.105 7.11667 220.797 6.625 221.597 6.275C222.414 5.90833 223.305 5.725 224.272 5.725C225.255 5.725 226.147 5.90833 226.947 6.275C227.747 6.625 228.439 7.11667 229.022 7.75C229.622 8.36667 230.08 9.08333 230.397 9.9C230.714 10.7167 230.872 11.5833 230.872 12.5C230.872 13.4 230.714 14.2583 230.397 15.075C230.08 15.8917 229.63 16.6167 229.047 17.25C228.464 17.8667 227.764 18.3583 226.947 18.725C226.147 19.075 225.255 19.25 224.272 19.25ZM219.947 12.525C219.947 13.425 220.139 14.2417 220.522 14.975C220.922 15.7083 221.447 16.2917 222.097 16.725C222.747 17.1417 223.472 17.35 224.272 17.35C225.072 17.35 225.797 17.1333 226.447 16.7C227.114 16.2667 227.639 15.6833 228.022 14.95C228.422 14.2 228.622 13.375 228.622 12.475C228.622 11.575 228.422 10.7583 228.022 10.025C227.639 9.29167 227.114 8.70833 226.447 8.275C225.797 7.84167 225.072 7.625 224.272 7.625C223.472 7.625 222.747 7.85 222.097 8.3C221.447 8.73333 220.922 9.31667 220.522 10.05C220.139 10.7833 219.947 11.6083 219.947 12.525ZM233.588 0.75H235.788V15.625C235.788 16.3417 235.888 16.7833 236.088 16.95C236.288 17.1167 236.529 17.2 236.813 17.2C237.163 17.2 237.496 17.1667 237.813 17.1C238.129 17.0167 238.396 16.9333 238.613 16.85L238.963 18.65C238.596 18.8 238.163 18.925 237.663 19.025C237.163 19.125 236.721 19.175 236.338 19.175C235.488 19.175 234.813 18.9333 234.313 18.45C233.829 17.9667 233.588 17.2917 233.588 16.425V0.75ZM240.566 13.775V5.95H242.766V13.35C242.766 14.6833 242.999 15.6833 243.466 16.35C243.933 17.0167 244.624 17.35 245.541 17.35C246.141 17.35 246.716 17.225 247.266 16.975C247.833 16.7083 248.341 16.3333 248.791 15.85C249.241 15.3667 249.591 14.7917 249.841 14.125V5.95H252.041V16.5C252.041 16.7667 252.091 16.9667 252.191 17.1C252.308 17.2167 252.491 17.2833 252.741 17.3V19C252.491 19.0333 252.291 19.05 252.141 19.05C252.008 19.0667 251.874 19.075 251.741 19.075C251.324 19.075 250.966 18.95 250.666 18.7C250.366 18.4333 250.208 18.1083 250.191 17.725L250.141 16.2C249.574 17.1667 248.808 17.9167 247.841 18.45C246.891 18.9833 245.849 19.25 244.716 19.25C243.349 19.25 242.316 18.7917 241.616 17.875C240.916 16.9417 240.566 15.575 240.566 13.775ZM262.456 18.35C262.272 18.4333 262.022 18.5417 261.706 18.675C261.389 18.8083 261.022 18.925 260.606 19.025C260.189 19.125 259.747 19.175 259.281 19.175C258.747 19.175 258.256 19.0833 257.806 18.9C257.356 18.7 256.997 18.4 256.731 18C256.464 17.5833 256.331 17.0667 256.331 16.45V7.675H254.556V5.95H256.331V1.6H258.531V5.95H261.456V7.675H258.531V15.775C258.564 16.2417 258.722 16.5917 259.006 16.825C259.289 17.0417 259.622 17.15 260.006 17.15C260.439 17.15 260.839 17.075 261.206 16.925C261.572 16.775 261.814 16.6667 261.931 16.6L262.456 18.35ZM264.495 19V5.95H266.695V19H264.495ZM264.495 3.5V0.75H266.695V3.5H264.495ZM275.956 19.25C274.973 19.25 274.081 19.075 273.281 18.725C272.481 18.3583 271.79 17.8667 271.206 17.25C270.623 16.6167 270.173 15.8917 269.856 15.075C269.54 14.2583 269.381 13.4 269.381 12.5C269.381 11.5833 269.54 10.7167 269.856 9.9C270.173 9.08333 270.623 8.36667 271.206 7.75C271.79 7.11667 272.481 6.625 273.281 6.275C274.098 5.90833 274.99 5.725 275.956 5.725C276.94 5.725 277.831 5.90833 278.631 6.275C279.431 6.625 280.123 7.11667 280.706 7.75C281.306 8.36667 281.765 9.08333 282.081 9.9C282.398 10.7167 282.556 11.5833 282.556 12.5C282.556 13.4 282.398 14.2583 282.081 15.075C281.765 15.8917 281.315 16.6167 280.731 17.25C280.148 17.8667 279.448 18.3583 278.631 18.725C277.831 19.075 276.94 19.25 275.956 19.25ZM271.631 12.525C271.631 13.425 271.823 14.2417 272.206 14.975C272.606 15.7083 273.131 16.2917 273.781 16.725C274.431 17.1417 275.156 17.35 275.956 17.35C276.756 17.35 277.481 17.1333 278.131 16.7C278.798 16.2667 279.323 15.6833 279.706 14.95C280.106 14.2 280.306 13.375 280.306 12.475C280.306 11.575 280.106 10.7583 279.706 10.025C279.323 9.29167 278.798 8.70833 278.131 8.275C277.481 7.84167 276.756 7.625 275.956 7.625C275.156 7.625 274.431 7.85 273.781 8.3C273.131 8.73333 272.606 9.31667 272.206 10.05C271.823 10.7833 271.631 11.6083 271.631 12.525ZM296.547 19H294.347V11.7C294.347 10.3167 294.131 9.30833 293.697 8.675C293.281 8.025 292.639 7.7 291.772 7.7C291.172 7.7 290.572 7.85 289.972 8.15C289.389 8.45 288.864 8.85833 288.397 9.375C287.947 9.875 287.622 10.4583 287.422 11.125V19H285.222V5.95H287.222V8.75C287.572 8.13333 288.022 7.6 288.572 7.15C289.122 6.7 289.747 6.35 290.447 6.1C291.147 5.85 291.881 5.725 292.647 5.725C293.397 5.725 294.022 5.86667 294.522 6.15C295.039 6.41667 295.439 6.8 295.722 7.3C296.022 7.78333 296.231 8.35833 296.347 9.025C296.481 9.69167 296.547 10.4167 296.547 11.2V19ZM312.992 19.25C311.975 19.25 311.05 19 310.217 18.5C309.383 18 308.725 17.35 308.242 16.55V19H306.292V0.75H308.492V8.55C309.042 7.7 309.717 7.01667 310.517 6.5C311.317 5.98333 312.25 5.725 313.317 5.725C314.217 5.725 315.025 5.91667 315.742 6.3C316.458 6.66667 317.067 7.175 317.567 7.825C318.083 8.45833 318.475 9.18333 318.742 10C319.025 10.8 319.167 11.6417 319.167 12.525C319.167 13.4417 319.008 14.3083 318.692 15.125C318.392 15.925 317.958 16.6417 317.392 17.275C316.825 17.8917 316.167 18.375 315.417 18.725C314.683 19.075 313.875 19.25 312.992 19.25ZM312.442 17.35C313.092 17.35 313.692 17.2167 314.242 16.95C314.792 16.6833 315.267 16.325 315.667 15.875C316.067 15.425 316.375 14.9083 316.592 14.325C316.808 13.7417 316.917 13.1417 316.917 12.525C316.917 11.675 316.733 10.875 316.367 10.125C316.017 9.375 315.517 8.775 314.867 8.325C314.233 7.85833 313.492 7.625 312.642 7.625C312.025 7.625 311.45 7.76667 310.917 8.05C310.383 8.33333 309.908 8.70833 309.492 9.175C309.092 9.625 308.758 10.125 308.492 10.675V14.45C308.575 14.8667 308.75 15.25 309.017 15.6C309.283 15.95 309.608 16.2583 309.992 16.525C310.375 16.775 310.775 16.975 311.192 17.125C311.625 17.275 312.042 17.35 312.442 17.35ZM322.028 22.55C322.245 22.5667 322.462 22.5833 322.678 22.6C322.895 22.6333 323.062 22.65 323.178 22.65C323.445 22.65 323.678 22.5583 323.878 22.375C324.078 22.1917 324.295 21.8333 324.528 21.3C324.778 20.7833 325.095 20.0167 325.478 19L319.953 5.95H322.278L326.678 16.775L330.653 5.95H332.828L326.478 22.425C326.328 22.8083 326.103 23.1667 325.803 23.5C325.52 23.85 325.153 24.125 324.703 24.325C324.253 24.525 323.712 24.625 323.078 24.625C322.928 24.625 322.77 24.6167 322.603 24.6C322.453 24.5833 322.262 24.55 322.028 24.5V22.55ZM347.441 18.35C347.258 18.4333 347.008 18.5417 346.691 18.675C346.374 18.8083 346.008 18.925 345.591 19.025C345.174 19.125 344.733 19.175 344.266 19.175C343.733 19.175 343.241 19.0833 342.791 18.9C342.341 18.7 341.983 18.4 341.716 18C341.449 17.5833 341.316 17.0667 341.316 16.45V7.675H339.541V5.95H341.316V1.6H343.516V5.95H346.441V7.675H343.516V15.775C343.549 16.2417 343.708 16.5917 343.991 16.825C344.274 17.0417 344.608 17.15 344.991 17.15C345.424 17.15 345.824 17.075 346.191 16.925C346.558 16.775 346.799 16.6667 346.916 16.6L347.441 18.35ZM349.355 13.775V5.95H351.555V13.35C351.555 14.6833 351.788 15.6833 352.255 16.35C352.722 17.0167 353.413 17.35 354.33 17.35C354.93 17.35 355.505 17.225 356.055 16.975C356.622 16.7083 357.13 16.3333 357.58 15.85C358.03 15.3667 358.38 14.7917 358.63 14.125V5.95H360.83V16.5C360.83 16.7667 360.88 16.9667 360.98 17.1C361.097 17.2167 361.28 17.2833 361.53 17.3V19C361.28 19.0333 361.08 19.05 360.93 19.05C360.797 19.0667 360.663 19.075 360.53 19.075C360.113 19.075 359.755 18.95 359.455 18.7C359.155 18.4333 358.997 18.1083 358.98 17.725L358.93 16.2C358.363 17.1667 357.597 17.9167 356.63 18.45C355.68 18.9833 354.638 19.25 353.505 19.25C352.138 19.25 351.105 18.7917 350.405 17.875C349.705 16.9417 349.355 15.575 349.355 13.775ZM371.395 7.875C370.295 7.89167 369.32 8.175 368.47 8.725C367.636 9.25833 367.045 10 366.695 10.95V19H364.495V5.95H366.545V8.975C366.995 8.075 367.586 7.35 368.32 6.8C369.07 6.23333 369.853 5.91667 370.67 5.85C370.836 5.85 370.978 5.85 371.095 5.85C371.211 5.85 371.311 5.85833 371.395 5.875V7.875ZM384.902 19H382.702V11.7C382.702 10.3167 382.485 9.30833 382.052 8.675C381.635 8.025 380.993 7.7 380.127 7.7C379.527 7.7 378.927 7.85 378.327 8.15C377.743 8.45 377.218 8.85833 376.752 9.375C376.302 9.875 375.977 10.4583 375.777 11.125V19H373.577V5.95H375.577V8.75C375.927 8.13333 376.377 7.6 376.927 7.15C377.477 6.7 378.102 6.35 378.802 6.1C379.502 5.85 380.235 5.725 381.002 5.725C381.752 5.725 382.377 5.86667 382.877 6.15C383.393 6.41667 383.793 6.8 384.077 7.3C384.377 7.78333 384.585 8.35833 384.702 9.025C384.835 9.69167 384.902 10.4167 384.902 11.2V19ZM388.323 19V5.95H390.523V19H388.323ZM388.323 3.5V0.75H390.523V3.5H388.323ZM405.41 19H403.21V11.7C403.21 10.3167 402.993 9.30833 402.56 8.675C402.143 8.025 401.501 7.7 400.635 7.7C400.035 7.7 399.435 7.85 398.835 8.15C398.251 8.45 397.726 8.85833 397.26 9.375C396.81 9.875 396.485 10.4583 396.285 11.125V19H394.085V5.95H396.085V8.75C396.435 8.13333 396.885 7.6 397.435 7.15C397.985 6.7 398.61 6.35 399.31 6.1C400.01 5.85 400.743 5.725 401.51 5.725C402.26 5.725 402.885 5.86667 403.385 6.15C403.901 6.41667 404.301 6.8 404.585 7.3C404.885 7.78333 405.093 8.35833 405.21 9.025C405.343 9.69167 405.41 10.4167 405.41 11.2V19ZM414.031 19.15C413.147 19.15 412.331 18.975 411.581 18.625C410.847 18.2583 410.214 17.7667 409.681 17.15C409.147 16.5167 408.731 15.8 408.431 15C408.147 14.2 408.006 13.3667 408.006 12.5C408.006 11.5833 408.147 10.7167 408.431 9.9C408.731 9.08333 409.147 8.36667 409.681 7.75C410.231 7.11667 410.872 6.625 411.606 6.275C412.339 5.90833 413.156 5.725 414.056 5.725C415.139 5.725 416.081 5.99167 416.881 6.525C417.697 7.05833 418.381 7.73333 418.931 8.55V5.95H420.881V18.85C420.881 20.0833 420.581 21.125 419.981 21.975C419.397 22.825 418.597 23.4667 417.581 23.9C416.581 24.35 415.464 24.575 414.231 24.575C412.764 24.575 411.564 24.3167 410.631 23.8C409.697 23.2833 408.922 22.5833 408.306 21.7L409.581 20.575C410.097 21.3417 410.764 21.9167 411.581 22.3C412.414 22.6833 413.297 22.875 414.231 22.875C415.031 22.875 415.764 22.725 416.431 22.425C417.114 22.1417 417.656 21.7 418.056 21.1C418.472 20.5 418.681 19.75 418.681 18.85V16.55C418.197 17.35 417.531 17.9833 416.681 18.45C415.847 18.9167 414.964 19.15 414.031 19.15ZM414.706 17.35C415.172 17.35 415.622 17.2667 416.056 17.1C416.489 16.9333 416.889 16.7167 417.256 16.45C417.622 16.1667 417.931 15.85 418.181 15.5C418.431 15.15 418.597 14.7917 418.681 14.425V10.675C418.447 10.075 418.114 9.55 417.681 9.1C417.247 8.63333 416.756 8.275 416.206 8.025C415.656 7.75833 415.089 7.625 414.506 7.625C413.839 7.625 413.239 7.76667 412.706 8.05C412.189 8.33333 411.747 8.71667 411.381 9.2C411.014 9.66667 410.731 10.1917 410.531 10.775C410.331 11.3583 410.231 11.95 410.231 12.55C410.231 13.2 410.347 13.8167 410.581 14.4C410.814 14.9667 411.131 15.475 411.531 15.925C411.931 16.375 412.406 16.725 412.956 16.975C413.506 17.225 414.089 17.35 414.706 17.35ZM429.729 15.225C429.729 14.3917 429.963 13.675 430.429 13.075C430.913 12.4583 431.571 11.9833 432.404 11.65C433.238 11.3167 434.204 11.15 435.304 11.15C435.888 11.15 436.504 11.2 437.154 11.3C437.804 11.3833 438.379 11.5167 438.879 11.7V10.75C438.879 9.75 438.579 8.96667 437.979 8.4C437.379 7.81667 436.529 7.525 435.429 7.525C434.713 7.525 434.021 7.65833 433.354 7.925C432.704 8.175 432.013 8.54167 431.279 9.025L430.479 7.475C431.329 6.89167 432.179 6.45833 433.029 6.175C433.879 5.875 434.763 5.725 435.679 5.725C437.346 5.725 438.663 6.19167 439.629 7.125C440.596 8.04167 441.079 9.325 441.079 10.975V16.5C441.079 16.7667 441.129 16.9667 441.229 17.1C441.346 17.2167 441.529 17.2833 441.779 17.3V19C441.563 19.0333 441.371 19.0583 441.204 19.075C441.054 19.0917 440.929 19.1 440.829 19.1C440.313 19.1 439.921 18.9583 439.654 18.675C439.404 18.3917 439.263 18.0917 439.229 17.775L439.179 16.95C438.613 17.6833 437.871 18.25 436.954 18.65C436.038 19.05 435.129 19.25 434.229 19.25C433.363 19.25 432.588 19.075 431.904 18.725C431.221 18.3583 430.688 17.875 430.304 17.275C429.921 16.6583 429.729 15.975 429.729 15.225ZM438.229 16.15C438.429 15.9167 438.588 15.6833 438.704 15.45C438.821 15.2 438.879 14.9917 438.879 14.825V13.2C438.363 13 437.821 12.85 437.254 12.75C436.688 12.6333 436.129 12.575 435.579 12.575C434.463 12.575 433.554 12.8 432.854 13.25C432.171 13.6833 431.829 14.2833 431.829 15.05C431.829 15.4667 431.938 15.875 432.154 16.275C432.388 16.6583 432.721 16.975 433.154 17.225C433.604 17.475 434.154 17.6 434.804 17.6C435.488 17.6 436.138 17.4667 436.754 17.2C437.371 16.9167 437.863 16.5667 438.229 16.15ZM449.797 19.15C448.914 19.15 448.097 18.975 447.347 18.625C446.614 18.2583 445.981 17.7667 445.447 17.15C444.914 16.5167 444.497 15.8 444.197 15C443.914 14.2 443.772 13.3667 443.772 12.5C443.772 11.5833 443.914 10.7167 444.197 9.9C444.497 9.08333 444.914 8.36667 445.447 7.75C445.997 7.11667 446.639 6.625 447.372 6.275C448.106 5.90833 448.922 5.725 449.822 5.725C450.906 5.725 451.847 5.99167 452.647 6.525C453.464 7.05833 454.147 7.73333 454.697 8.55V5.95H456.647V18.85C456.647 20.0833 456.347 21.125 455.747 21.975C455.164 22.825 454.364 23.4667 453.347 23.9C452.347 24.35 451.231 24.575 449.997 24.575C448.531 24.575 447.331 24.3167 446.397 23.8C445.464 23.2833 444.689 22.5833 444.072 21.7L445.347 20.575C445.864 21.3417 446.531 21.9167 447.347 22.3C448.181 22.6833 449.064 22.875 449.997 22.875C450.797 22.875 451.531 22.725 452.197 22.425C452.881 22.1417 453.422 21.7 453.822 21.1C454.239 20.5 454.447 19.75 454.447 18.85V16.55C453.964 17.35 453.297 17.9833 452.447 18.45C451.614 18.9167 450.731 19.15 449.797 19.15ZM450.472 17.35C450.939 17.35 451.389 17.2667 451.822 17.1C452.256 16.9333 452.656 16.7167 453.022 16.45C453.389 16.1667 453.697 15.85 453.947 15.5C454.197 15.15 454.364 14.7917 454.447 14.425V10.675C454.214 10.075 453.881 9.55 453.447 9.1C453.014 8.63333 452.522 8.275 451.972 8.025C451.422 7.75833 450.856 7.625 450.272 7.625C449.606 7.625 449.006 7.76667 448.472 8.05C447.956 8.33333 447.514 8.71667 447.147 9.2C446.781 9.66667 446.497 10.1917 446.297 10.775C446.097 11.3583 445.997 11.95 445.997 12.55C445.997 13.2 446.114 13.8167 446.347 14.4C446.581 14.9667 446.897 15.475 447.297 15.925C447.697 16.375 448.172 16.725 448.722 16.975C449.272 17.225 449.856 17.35 450.472 17.35ZM467.098 7.875C465.998 7.89167 465.023 8.175 464.173 8.725C463.34 9.25833 462.748 10 462.398 10.95V19H460.198V5.95H462.248V8.975C462.698 8.075 463.29 7.35 464.023 6.8C464.773 6.23333 465.556 5.91667 466.373 5.85C466.54 5.85 466.681 5.85 466.798 5.85C466.915 5.85 467.015 5.85833 467.098 5.875V7.875ZM469.28 19V5.95H471.48V19H469.28ZM469.28 3.5V0.75H471.48V3.5H469.28ZM480.817 19.25C479.833 19.25 478.933 19.075 478.117 18.725C477.317 18.3583 476.617 17.8583 476.017 17.225C475.433 16.5917 474.975 15.8667 474.642 15.05C474.325 14.2333 474.167 13.3667 474.167 12.45C474.167 11.2167 474.442 10.0917 474.992 9.075C475.542 8.05833 476.317 7.25 477.317 6.65C478.317 6.03333 479.475 5.725 480.792 5.725C482.075 5.725 483.192 6.01667 484.142 6.6C485.108 7.16667 485.825 7.93333 486.292 8.9L484.142 9.575C483.808 8.95833 483.342 8.48333 482.742 8.15C482.142 7.8 481.475 7.625 480.742 7.625C479.942 7.625 479.208 7.83333 478.542 8.25C477.892 8.66667 477.375 9.24167 476.992 9.975C476.608 10.6917 476.417 11.5167 476.417 12.45C476.417 13.3667 476.608 14.2 476.992 14.95C477.392 15.6833 477.917 16.2667 478.567 16.7C479.233 17.1333 479.967 17.35 480.767 17.35C481.283 17.35 481.775 17.2583 482.242 17.075C482.725 16.8917 483.142 16.65 483.492 16.35C483.858 16.0333 484.108 15.6917 484.242 15.325L486.392 15.975C486.125 16.6083 485.717 17.175 485.167 17.675C484.633 18.1583 483.992 18.5417 483.242 18.825C482.508 19.1083 481.7 19.25 480.817 19.25ZM488.759 13.775V5.95H490.959V13.35C490.959 14.6833 491.193 15.6833 491.659 16.35C492.126 17.0167 492.818 17.35 493.734 17.35C494.334 17.35 494.909 17.225 495.459 16.975C496.026 16.7083 496.534 16.3333 496.984 15.85C497.434 15.3667 497.784 14.7917 498.034 14.125V5.95H500.234V16.5C500.234 16.7667 500.284 16.9667 500.384 17.1C500.501 17.2167 500.684 17.2833 500.934 17.3V19C500.684 19.0333 500.484 19.05 500.334 19.05C500.201 19.0667 500.068 19.075 499.934 19.075C499.518 19.075 499.159 18.95 498.859 18.7C498.559 18.4333 498.401 18.1083 498.384 17.725L498.334 16.2C497.768 17.1667 497.001 17.9167 496.034 18.45C495.084 18.9833 494.043 19.25 492.909 19.25C491.543 19.25 490.509 18.7917 489.809 17.875C489.109 16.9417 488.759 15.575 488.759 13.775ZM503.949 0.75H506.149V15.625C506.149 16.3417 506.249 16.7833 506.449 16.95C506.649 17.1167 506.891 17.2 507.174 17.2C507.524 17.2 507.857 17.1667 508.174 17.1C508.491 17.0167 508.757 16.9333 508.974 16.85L509.324 18.65C508.957 18.8 508.524 18.925 508.024 19.025C507.524 19.125 507.082 19.175 506.699 19.175C505.849 19.175 505.174 18.9333 504.674 18.45C504.191 17.9667 503.949 17.2917 503.949 16.425V0.75ZM517.802 18.35C517.619 18.4333 517.369 18.5417 517.052 18.675C516.736 18.8083 516.369 18.925 515.952 19.025C515.536 19.125 515.094 19.175 514.627 19.175C514.094 19.175 513.602 19.0833 513.152 18.9C512.702 18.7 512.344 18.4 512.077 18C511.811 17.5833 511.677 17.0667 511.677 16.45V7.675H509.902V5.95H511.677V1.6H513.877V5.95H516.802V7.675H513.877V15.775C513.911 16.2417 514.069 16.5917 514.352 16.825C514.636 17.0417 514.969 17.15 515.352 17.15C515.786 17.15 516.186 17.075 516.552 16.925C516.919 16.775 517.161 16.6667 517.277 16.6L517.802 18.35ZM519.716 13.775V5.95H521.916V13.35C521.916 14.6833 522.15 15.6833 522.616 16.35C523.083 17.0167 523.775 17.35 524.691 17.35C525.291 17.35 525.866 17.225 526.416 16.975C526.983 16.7083 527.491 16.3333 527.941 15.85C528.391 15.3667 528.741 14.7917 528.991 14.125V5.95H531.191V16.5C531.191 16.7667 531.241 16.9667 531.341 17.1C531.458 17.2167 531.641 17.2833 531.891 17.3V19C531.641 19.0333 531.441 19.05 531.291 19.05C531.158 19.0667 531.025 19.075 530.891 19.075C530.475 19.075 530.116 18.95 529.816 18.7C529.516 18.4333 529.358 18.1083 529.341 17.725L529.291 16.2C528.725 17.1667 527.958 17.9167 526.991 18.45C526.041 18.9833 525 19.25 523.866 19.25C522.5 19.25 521.466 18.7917 520.766 17.875C520.066 16.9417 519.716 15.575 519.716 13.775ZM541.756 7.875C540.656 7.89167 539.681 8.175 538.831 8.725C537.998 9.25833 537.406 10 537.056 10.95V19H534.856V5.95H536.906V8.975C537.356 8.075 537.948 7.35 538.681 6.8C539.431 6.23333 540.214 5.91667 541.031 5.85C541.198 5.85 541.339 5.85 541.456 5.85C541.573 5.85 541.673 5.85833 541.756 5.875V7.875ZM542.913 15.225C542.913 14.3917 543.146 13.675 543.613 13.075C544.096 12.4583 544.755 11.9833 545.588 11.65C546.421 11.3167 547.388 11.15 548.488 11.15C549.071 11.15 549.688 11.2 550.338 11.3C550.988 11.3833 551.563 11.5167 552.063 11.7V10.75C552.063 9.75 551.763 8.96667 551.163 8.4C550.563 7.81667 549.713 7.525 548.613 7.525C547.896 7.525 547.205 7.65833 546.538 7.925C545.888 8.175 545.196 8.54167 544.463 9.025L543.663 7.475C544.513 6.89167 545.363 6.45833 546.213 6.175C547.063 5.875 547.946 5.725 548.863 5.725C550.53 5.725 551.846 6.19167 552.813 7.125C553.78 8.04167 554.263 9.325 554.263 10.975V16.5C554.263 16.7667 554.313 16.9667 554.413 17.1C554.53 17.2167 554.713 17.2833 554.963 17.3V19C554.746 19.0333 554.555 19.0583 554.388 19.075C554.238 19.0917 554.113 19.1 554.013 19.1C553.496 19.1 553.105 18.9583 552.838 18.675C552.588 18.3917 552.446 18.0917 552.413 17.775L552.363 16.95C551.796 17.6833 551.055 18.25 550.138 18.65C549.221 19.05 548.313 19.25 547.413 19.25C546.546 19.25 545.771 19.075 545.088 18.725C544.405 18.3583 543.871 17.875 543.488 17.275C543.105 16.6583 542.913 15.975 542.913 15.225ZM551.413 16.15C551.613 15.9167 551.771 15.6833 551.888 15.45C552.005 15.2 552.063 14.9917 552.063 14.825V13.2C551.546 13 551.005 12.85 550.438 12.75C549.871 12.6333 549.313 12.575 548.763 12.575C547.646 12.575 546.738 12.8 546.038 13.25C545.355 13.6833 545.013 14.2833 545.013 15.05C545.013 15.4667 545.121 15.875 545.338 16.275C545.571 16.6583 545.905 16.975 546.338 17.225C546.788 17.475 547.338 17.6 547.988 17.6C548.671 17.6 549.321 17.4667 549.938 17.2C550.555 16.9167 551.046 16.5667 551.413 16.15ZM557.831 0.75H560.031V15.625C560.031 16.3417 560.131 16.7833 560.331 16.95C560.531 17.1167 560.773 17.2 561.056 17.2C561.406 17.2 561.739 17.1667 562.056 17.1C562.373 17.0167 562.639 16.9333 562.856 16.85L563.206 18.65C562.839 18.8 562.406 18.925 561.906 19.025C561.406 19.125 560.964 19.175 560.581 19.175C559.731 19.175 559.056 18.9333 558.556 18.45C558.073 17.9667 557.831 17.2917 557.831 16.425V0.75ZM586.143 5.95H588.268L582.718 19H580.793L578.268 12.85L575.768 19H573.843L568.293 5.95H570.393L574.893 16.825L576.993 11.475L574.793 5.975H576.718L578.268 10.125L579.818 5.975H581.743L579.568 11.475L581.668 16.825L586.143 5.95ZM588.982 15.225C588.982 14.3917 589.216 13.675 589.682 13.075C590.166 12.4583 590.824 11.9833 591.657 11.65C592.491 11.3167 593.457 11.15 594.557 11.15C595.141 11.15 595.757 11.2 596.407 11.3C597.057 11.3833 597.632 11.5167 598.132 11.7V10.75C598.132 9.75 597.832 8.96667 597.232 8.4C596.632 7.81667 595.782 7.525 594.682 7.525C593.966 7.525 593.274 7.65833 592.607 7.925C591.957 8.175 591.266 8.54167 590.532 9.025L589.732 7.475C590.582 6.89167 591.432 6.45833 592.282 6.175C593.132 5.875 594.016 5.725 594.932 5.725C596.599 5.725 597.916 6.19167 598.882 7.125C599.849 8.04167 600.332 9.325 600.332 10.975V16.5C600.332 16.7667 600.382 16.9667 600.482 17.1C600.599 17.2167 600.782 17.2833 601.032 17.3V19C600.816 19.0333 600.624 19.0583 600.457 19.075C600.307 19.0917 600.182 19.1 600.082 19.1C599.566 19.1 599.174 18.9583 598.907 18.675C598.657 18.3917 598.516 18.0917 598.482 17.775L598.432 16.95C597.866 17.6833 597.124 18.25 596.207 18.65C595.291 19.05 594.382 19.25 593.482 19.25C592.616 19.25 591.841 19.075 591.157 18.725C590.474 18.3583 589.941 17.875 589.557 17.275C589.174 16.6583 588.982 15.975 588.982 15.225ZM597.482 16.15C597.682 15.9167 597.841 15.6833 597.957 15.45C598.074 15.2 598.132 14.9917 598.132 14.825V13.2C597.616 13 597.074 12.85 596.507 12.75C595.941 12.6333 595.382 12.575 594.832 12.575C593.716 12.575 592.807 12.8 592.107 13.25C591.424 13.6833 591.082 14.2833 591.082 15.05C591.082 15.4667 591.191 15.875 591.407 16.275C591.641 16.6583 591.974 16.975 592.407 17.225C592.857 17.475 593.407 17.6 594.057 17.6C594.741 17.6 595.391 17.4667 596.007 17.2C596.624 16.9167 597.116 16.5667 597.482 16.15ZM608.325 19.25C607.242 19.25 606.225 19.075 605.275 18.725C604.325 18.3583 603.509 17.8167 602.825 17.1L603.675 15.55C604.425 16.25 605.175 16.75 605.925 17.05C606.675 17.35 607.442 17.5 608.225 17.5C609.125 17.5 609.859 17.3333 610.425 17C610.992 16.65 611.275 16.1417 611.275 15.475C611.275 14.9917 611.125 14.6333 610.825 14.4C610.542 14.1667 610.134 13.975 609.6 13.825C609.067 13.6583 608.434 13.475 607.7 13.275C606.8 13.0083 606.042 12.725 605.425 12.425C604.809 12.125 604.342 11.75 604.025 11.3C603.709 10.85 603.55 10.2833 603.55 9.6C603.55 8.76667 603.767 8.06667 604.2 7.5C604.634 6.91667 605.225 6.475 605.975 6.175C606.742 5.875 607.609 5.725 608.575 5.725C609.542 5.725 610.417 5.875 611.2 6.175C611.984 6.475 612.659 6.91667 613.225 7.5L612.225 9.025C611.709 8.49167 611.142 8.1 610.525 7.85C609.909 7.58333 609.217 7.45 608.45 7.45C608 7.45 607.559 7.50833 607.125 7.625C606.692 7.725 606.334 7.91667 606.05 8.2C605.767 8.46667 605.625 8.85 605.625 9.35C605.625 9.76667 605.734 10.1 605.95 10.35C606.184 10.5833 606.517 10.7833 606.95 10.95C607.4 11.1167 607.942 11.3 608.575 11.5C609.559 11.7833 610.409 12.0667 611.125 12.35C611.859 12.6333 612.425 13 612.825 13.45C613.225 13.9 613.425 14.525 613.425 15.325C613.425 16.5583 612.959 17.525 612.025 18.225C611.092 18.9083 609.859 19.25 608.325 19.25ZM622.807 18.35C622.624 18.4333 622.374 18.5417 622.057 18.675C621.741 18.8083 621.374 18.925 620.957 19.025C620.541 19.125 620.099 19.175 619.632 19.175C619.099 19.175 618.607 19.0833 618.157 18.9C617.707 18.7 617.349 18.4 617.082 18C616.816 17.5833 616.682 17.0667 616.682 16.45V7.675H614.907V5.95H616.682V1.6H618.882V5.95H621.807V7.675H618.882V15.775C618.916 16.2417 619.074 16.5917 619.357 16.825C619.641 17.0417 619.974 17.15 620.357 17.15C620.791 17.15 621.191 17.075 621.557 16.925C621.924 16.775 622.166 16.6667 622.282 16.6L622.807 18.35ZM630.45 19.25C629.467 19.25 628.567 19.075 627.75 18.725C626.95 18.3583 626.25 17.8667 625.65 17.25C625.067 16.6167 624.609 15.8917 624.275 15.075C623.959 14.2583 623.8 13.3917 623.8 12.475C623.8 11.2417 624.084 10.1167 624.65 9.1C625.217 8.08333 626 7.26667 627 6.65C628.017 6.03333 629.175 5.725 630.475 5.725C631.792 5.725 632.934 6.04167 633.9 6.675C634.884 7.29167 635.642 8.10833 636.175 9.125C636.725 10.125 637 11.2083 637 12.375C637 12.5417 636.992 12.7083 636.975 12.875C636.975 13.025 636.967 13.1417 636.95 13.225H626.125C626.192 14.075 626.425 14.8333 626.825 15.5C627.242 16.15 627.775 16.6667 628.425 17.05C629.075 17.4167 629.775 17.6 630.525 17.6C631.325 17.6 632.075 17.4 632.775 17C633.492 16.6 633.984 16.075 634.25 15.425L636.15 15.95C635.867 16.5833 635.442 17.15 634.875 17.65C634.325 18.15 633.667 18.5417 632.9 18.825C632.15 19.1083 631.334 19.25 630.45 19.25ZM626.05 11.7H634.95C634.884 10.85 634.642 10.1 634.225 9.45C633.809 8.8 633.275 8.29167 632.625 7.925C631.975 7.55833 631.259 7.375 630.475 7.375C629.709 7.375 629 7.55833 628.35 7.925C627.7 8.29167 627.167 8.8 626.75 9.45C626.35 10.1 626.117 10.85 626.05 11.7ZM645.769 19V5.95H647.969V19H645.769ZM645.769 3.5V0.75H647.969V3.5H645.769ZM662.856 19H660.656V11.7C660.656 10.3167 660.439 9.30833 660.006 8.675C659.589 8.025 658.948 7.7 658.081 7.7C657.481 7.7 656.881 7.85 656.281 8.15C655.698 8.45 655.173 8.85833 654.706 9.375C654.256 9.875 653.931 10.4583 653.731 11.125V19H651.531V5.95H653.531V8.75C653.881 8.13333 654.331 7.6 654.881 7.15C655.431 6.7 656.056 6.35 656.756 6.1C657.456 5.85 658.189 5.725 658.956 5.725C659.706 5.725 660.331 5.86667 660.831 6.15C661.348 6.41667 661.748 6.8 662.031 7.3C662.331 7.78333 662.539 8.35833 662.656 9.025C662.789 9.69167 662.856 10.4167 662.856 11.2V19ZM672.905 18.35C672.722 18.4333 672.472 18.5417 672.155 18.675C671.838 18.8083 671.472 18.925 671.055 19.025C670.638 19.125 670.197 19.175 669.73 19.175C669.197 19.175 668.705 19.0833 668.255 18.9C667.805 18.7 667.447 18.4 667.18 18C666.913 17.5833 666.78 17.0667 666.78 16.45V7.675H665.005V5.95H666.78V1.6H668.98V5.95H671.905V7.675H668.98V15.775C669.013 16.2417 669.172 16.5917 669.455 16.825C669.738 17.0417 670.072 17.15 670.455 17.15C670.888 17.15 671.288 17.075 671.655 16.925C672.022 16.775 672.263 16.6667 672.38 16.6L672.905 18.35ZM680.473 19.25C679.49 19.25 678.598 19.075 677.798 18.725C676.998 18.3583 676.306 17.8667 675.723 17.25C675.14 16.6167 674.69 15.8917 674.373 15.075C674.056 14.2583 673.898 13.4 673.898 12.5C673.898 11.5833 674.056 10.7167 674.373 9.9C674.69 9.08333 675.14 8.36667 675.723 7.75C676.306 7.11667 676.998 6.625 677.798 6.275C678.615 5.90833 679.506 5.725 680.473 5.725C681.456 5.725 682.348 5.90833 683.148 6.275C683.948 6.625 684.64 7.11667 685.223 7.75C685.823 8.36667 686.281 9.08333 686.598 9.9C686.915 10.7167 687.073 11.5833 687.073 12.5C687.073 13.4 686.915 14.2583 686.598 15.075C686.281 15.8917 685.831 16.6167 685.248 17.25C684.665 17.8667 683.965 18.3583 683.148 18.725C682.348 19.075 681.456 19.25 680.473 19.25ZM676.148 12.525C676.148 13.425 676.34 14.2417 676.723 14.975C677.123 15.7083 677.648 16.2917 678.298 16.725C678.948 17.1417 679.673 17.35 680.473 17.35C681.273 17.35 681.998 17.1333 682.648 16.7C683.315 16.2667 683.84 15.6833 684.223 14.95C684.623 14.2 684.823 13.375 684.823 12.475C684.823 11.575 684.623 10.7583 684.223 10.025C683.84 9.29167 683.315 8.70833 682.648 8.275C681.998 7.84167 681.273 7.625 680.473 7.625C679.673 7.625 678.948 7.85 678.298 8.3C677.648 8.73333 677.123 9.31667 676.723 10.05C676.34 10.7833 676.148 11.6083 676.148 12.525ZM5.525 49L0.4 35.95H2.7L6.8 46.9L10.9 35.95H13.05L7.925 49H5.525ZM13.9092 45.225C13.9092 44.3917 14.1425 43.675 14.6092 43.075C15.0925 42.4583 15.7508 41.9833 16.5842 41.65C17.4175 41.3167 18.3842 41.15 19.4842 41.15C20.0675 41.15 20.6842 41.2 21.3342 41.3C21.9842 41.3833 22.5592 41.5167 23.0592 41.7V40.75C23.0592 39.75 22.7592 38.9667 22.1592 38.4C21.5592 37.8167 20.7092 37.525 19.6092 37.525C18.8925 37.525 18.2008 37.6583 17.5342 37.925C16.8842 38.175 16.1925 38.5417 15.4592 39.025L14.6592 37.475C15.5092 36.8917 16.3592 36.4583 17.2092 36.175C18.0592 35.875 18.9425 35.725 19.8592 35.725C21.5258 35.725 22.8425 36.1917 23.8092 37.125C24.7758 38.0417 25.2592 39.325 25.2592 40.975V46.5C25.2592 46.7667 25.3092 46.9667 25.4092 47.1C25.5258 47.2167 25.7092 47.2833 25.9592 47.3V49C25.7425 49.0333 25.5508 49.0583 25.3842 49.075C25.2342 49.0917 25.1092 49.1 25.0092 49.1C24.4925 49.1 24.1008 48.9583 23.8342 48.675C23.5842 48.3917 23.4425 48.0917 23.4092 47.775L23.3592 46.95C22.7925 47.6833 22.0508 48.25 21.1342 48.65C20.2175 49.05 19.3092 49.25 18.4092 49.25C17.5425 49.25 16.7675 49.075 16.0842 48.725C15.4008 48.3583 14.8675 47.875 14.4842 47.275C14.1008 46.6583 13.9092 45.975 13.9092 45.225ZM22.4092 46.15C22.6092 45.9167 22.7675 45.6833 22.8842 45.45C23.0008 45.2 23.0592 44.9917 23.0592 44.825V43.2C22.5425 43 22.0008 42.85 21.4342 42.75C20.8675 42.6333 20.3092 42.575 19.7592 42.575C18.6425 42.575 17.7342 42.8 17.0342 43.25C16.3508 43.6833 16.0092 44.2833 16.0092 45.05C16.0092 45.4667 16.1175 45.875 16.3342 46.275C16.5675 46.6583 16.9008 46.975 17.3342 47.225C17.7842 47.475 18.3342 47.6 18.9842 47.6C19.6675 47.6 20.3175 47.4667 20.9342 47.2C21.5508 46.9167 22.0425 46.5667 22.4092 46.15ZM28.827 30.75H31.027V45.625C31.027 46.3417 31.127 46.7833 31.327 46.95C31.527 47.1167 31.7686 47.2 32.052 47.2C32.402 47.2 32.7353 47.1667 33.052 47.1C33.3686 47.0167 33.6353 46.9333 33.852 46.85L34.202 48.65C33.8353 48.8 33.402 48.925 32.902 49.025C32.402 49.125 31.9603 49.175 31.577 49.175C30.727 49.175 30.052 48.9333 29.552 48.45C29.0686 47.9667 28.827 47.2917 28.827 46.425V30.75ZM35.8053 43.775V35.95H38.0053V43.35C38.0053 44.6833 38.2386 45.6833 38.7053 46.35C39.1719 47.0167 39.8636 47.35 40.7803 47.35C41.3803 47.35 41.9553 47.225 42.5053 46.975C43.0719 46.7083 43.5803 46.3333 44.0303 45.85C44.4803 45.3667 44.8303 44.7917 45.0803 44.125V35.95H47.2803V46.5C47.2803 46.7667 47.3303 46.9667 47.4303 47.1C47.5469 47.2167 47.7303 47.2833 47.9803 47.3V49C47.7303 49.0333 47.5303 49.05 47.3803 49.05C47.2469 49.0667 47.1136 49.075 46.9803 49.075C46.5636 49.075 46.2053 48.95 45.9053 48.7C45.6053 48.4333 45.4469 48.1083 45.4303 47.725L45.3803 46.2C44.8136 47.1667 44.0469 47.9167 43.0803 48.45C42.1303 48.9833 41.0886 49.25 39.9553 49.25C38.5886 49.25 37.5553 48.7917 36.8553 47.875C36.1553 46.9417 35.8053 45.575 35.8053 43.775ZM49.9199 45.225C49.9199 44.3917 50.1533 43.675 50.6199 43.075C51.1033 42.4583 51.7616 41.9833 52.5949 41.65C53.4283 41.3167 54.3949 41.15 55.4949 41.15C56.0783 41.15 56.6949 41.2 57.3449 41.3C57.9949 41.3833 58.5699 41.5167 59.0699 41.7V40.75C59.0699 39.75 58.7699 38.9667 58.1699 38.4C57.5699 37.8167 56.7199 37.525 55.6199 37.525C54.9033 37.525 54.2116 37.6583 53.5449 37.925C52.8949 38.175 52.2033 38.5417 51.4699 39.025L50.6699 37.475C51.5199 36.8917 52.3699 36.4583 53.2199 36.175C54.0699 35.875 54.9533 35.725 55.8699 35.725C57.5366 35.725 58.8533 36.1917 59.8199 37.125C60.7866 38.0417 61.2699 39.325 61.2699 40.975V46.5C61.2699 46.7667 61.3199 46.9667 61.4199 47.1C61.5366 47.2167 61.7199 47.2833 61.9699 47.3V49C61.7533 49.0333 61.5616 49.0583 61.3949 49.075C61.2449 49.0917 61.1199 49.1 61.0199 49.1C60.5033 49.1 60.1116 48.9583 59.8449 48.675C59.5949 48.3917 59.4533 48.0917 59.4199 47.775L59.3699 46.95C58.8033 47.6833 58.0616 48.25 57.1449 48.65C56.2283 49.05 55.3199 49.25 54.4199 49.25C53.5533 49.25 52.7783 49.075 52.0949 48.725C51.4116 48.3583 50.8783 47.875 50.4949 47.275C50.1116 46.6583 49.9199 45.975 49.9199 45.225ZM58.4199 46.15C58.6199 45.9167 58.7783 45.6833 58.8949 45.45C59.0116 45.2 59.0699 44.9917 59.0699 44.825V43.2C58.5533 43 58.0116 42.85 57.4449 42.75C56.8783 42.6333 56.3199 42.575 55.7699 42.575C54.6533 42.575 53.7449 42.8 53.0449 43.25C52.3616 43.6833 52.0199 44.2833 52.0199 45.05C52.0199 45.4667 52.1283 45.875 52.3449 46.275C52.5783 46.6583 52.9116 46.975 53.3449 47.225C53.7949 47.475 54.3449 47.6 54.9949 47.6C55.6783 47.6 56.3283 47.4667 56.9449 47.2C57.5616 46.9167 58.0533 46.5667 58.4199 46.15ZM71.4877 49.25C70.471 49.25 69.546 49 68.7127 48.5C67.8794 48 67.221 47.35 66.7377 46.55V49H64.7877V30.75H66.9877V38.55C67.5377 37.7 68.2127 37.0167 69.0127 36.5C69.8127 35.9833 70.746 35.725 71.8127 35.725C72.7127 35.725 73.521 35.9167 74.2377 36.3C74.9544 36.6667 75.5627 37.175 76.0627 37.825C76.5794 38.4583 76.971 39.1833 77.2377 40C77.521 40.8 77.6627 41.6417 77.6627 42.525C77.6627 43.4417 77.5044 44.3083 77.1877 45.125C76.8877 45.925 76.4544 46.6417 75.8877 47.275C75.321 47.8917 74.6627 48.375 73.9127 48.725C73.1794 49.075 72.371 49.25 71.4877 49.25ZM70.9377 47.35C71.5877 47.35 72.1877 47.2167 72.7377 46.95C73.2877 46.6833 73.7627 46.325 74.1627 45.875C74.5627 45.425 74.871 44.9083 75.0877 44.325C75.3044 43.7417 75.4127 43.1417 75.4127 42.525C75.4127 41.675 75.2294 40.875 74.8627 40.125C74.5127 39.375 74.0127 38.775 73.3627 38.325C72.7294 37.8583 71.9877 37.625 71.1377 37.625C70.521 37.625 69.946 37.7667 69.4127 38.05C68.8794 38.3333 68.4044 38.7083 67.9877 39.175C67.5877 39.625 67.2544 40.125 66.9877 40.675V44.45C67.071 44.8667 67.246 45.25 67.5127 45.6C67.7794 45.95 68.1044 46.2583 68.4877 46.525C68.871 46.775 69.271 46.975 69.6877 47.125C70.121 47.275 70.5377 47.35 70.9377 47.35ZM80.4139 30.75H82.6139V45.625C82.6139 46.3417 82.7139 46.7833 82.9139 46.95C83.1139 47.1167 83.3555 47.2 83.6389 47.2C83.9889 47.2 84.3222 47.1667 84.6389 47.1C84.9555 47.0167 85.2222 46.9333 85.4389 46.85L85.7889 48.65C85.4222 48.8 84.9889 48.925 84.4889 49.025C83.9889 49.125 83.5472 49.175 83.1639 49.175C82.3139 49.175 81.6389 48.9333 81.1389 48.45C80.6555 47.9667 80.4139 47.2917 80.4139 46.425V30.75ZM93.2922 49.25C92.3089 49.25 91.4089 49.075 90.5922 48.725C89.7922 48.3583 89.0922 47.8667 88.4922 47.25C87.9089 46.6167 87.4505 45.8917 87.1172 45.075C86.8005 44.2583 86.6422 43.3917 86.6422 42.475C86.6422 41.2417 86.9255 40.1167 87.4922 39.1C88.0589 38.0833 88.8422 37.2667 89.8422 36.65C90.8589 36.0333 92.0172 35.725 93.3172 35.725C94.6339 35.725 95.7755 36.0417 96.7422 36.675C97.7255 37.2917 98.4839 38.1083 99.0172 39.125C99.5672 40.125 99.8422 41.2083 99.8422 42.375C99.8422 42.5417 99.8339 42.7083 99.8172 42.875C99.8172 43.025 99.8089 43.1417 99.7922 43.225H88.9672C89.0339 44.075 89.2672 44.8333 89.6672 45.5C90.0839 46.15 90.6172 46.6667 91.2672 47.05C91.9172 47.4167 92.6172 47.6 93.3672 47.6C94.1672 47.6 94.9172 47.4 95.6172 47C96.3339 46.6 96.8255 46.075 97.0922 45.425L98.9922 45.95C98.7089 46.5833 98.2839 47.15 97.7172 47.65C97.1672 48.15 96.5089 48.5417 95.7422 48.825C94.9922 49.1083 94.1755 49.25 93.2922 49.25ZM88.8922 41.7H97.7922C97.7255 40.85 97.4839 40.1 97.0672 39.45C96.6505 38.8 96.1172 38.2917 95.4672 37.925C94.8172 37.5583 94.1005 37.375 93.3172 37.375C92.5505 37.375 91.8422 37.5583 91.1922 37.925C90.5422 38.2917 90.0089 38.8 89.5922 39.45C89.1922 40.1 88.9589 40.85 88.8922 41.7ZM115.511 37.875C114.411 37.8917 113.436 38.175 112.586 38.725C111.753 39.2583 111.161 40 110.811 40.95V49H108.611V35.95H110.661V38.975C111.111 38.075 111.703 37.35 112.436 36.8C113.186 36.2333 113.969 35.9167 114.786 35.85C114.953 35.85 115.094 35.85 115.211 35.85C115.328 35.85 115.428 35.8583 115.511 35.875V37.875ZM123.151 49.25C122.167 49.25 121.267 49.075 120.451 48.725C119.651 48.3583 118.951 47.8667 118.351 47.25C117.767 46.6167 117.309 45.8917 116.976 45.075C116.659 44.2583 116.501 43.3917 116.501 42.475C116.501 41.2417 116.784 40.1167 117.351 39.1C117.917 38.0833 118.701 37.2667 119.701 36.65C120.717 36.0333 121.876 35.725 123.176 35.725C124.492 35.725 125.634 36.0417 126.601 36.675C127.584 37.2917 128.342 38.1083 128.876 39.125C129.426 40.125 129.701 41.2083 129.701 42.375C129.701 42.5417 129.692 42.7083 129.676 42.875C129.676 43.025 129.667 43.1417 129.651 43.225H118.826C118.892 44.075 119.126 44.8333 119.526 45.5C119.942 46.15 120.476 46.6667 121.126 47.05C121.776 47.4167 122.476 47.6 123.226 47.6C124.026 47.6 124.776 47.4 125.476 47C126.192 46.6 126.684 46.075 126.951 45.425L128.851 45.95C128.567 46.5833 128.142 47.15 127.576 47.65C127.026 48.15 126.367 48.5417 125.601 48.825C124.851 49.1083 124.034 49.25 123.151 49.25ZM118.751 41.7H127.651C127.584 40.85 127.342 40.1 126.926 39.45C126.509 38.8 125.976 38.2917 125.326 37.925C124.676 37.5583 123.959 37.375 123.176 37.375C122.409 37.375 121.701 37.5583 121.051 37.925C120.401 38.2917 119.867 38.8 119.451 39.45C119.051 40.1 118.817 40.85 118.751 41.7ZM136.621 49.25C135.538 49.25 134.521 49.075 133.571 48.725C132.621 48.3583 131.804 47.8167 131.121 47.1L131.971 45.55C132.721 46.25 133.471 46.75 134.221 47.05C134.971 47.35 135.738 47.5 136.521 47.5C137.421 47.5 138.154 47.3333 138.721 47C139.288 46.65 139.571 46.1417 139.571 45.475C139.571 44.9917 139.421 44.6333 139.121 44.4C138.838 44.1667 138.429 43.975 137.896 43.825C137.363 43.6583 136.729 43.475 135.996 43.275C135.096 43.0083 134.338 42.725 133.721 42.425C133.104 42.125 132.638 41.75 132.321 41.3C132.004 40.85 131.846 40.2833 131.846 39.6C131.846 38.7667 132.063 38.0667 132.496 37.5C132.929 36.9167 133.521 36.475 134.271 36.175C135.038 35.875 135.904 35.725 136.871 35.725C137.838 35.725 138.713 35.875 139.496 36.175C140.279 36.475 140.954 36.9167 141.521 37.5L140.521 39.025C140.004 38.4917 139.438 38.1 138.821 37.85C138.204 37.5833 137.513 37.45 136.746 37.45C136.296 37.45 135.854 37.5083 135.421 37.625C134.988 37.725 134.629 37.9167 134.346 38.2C134.063 38.4667 133.921 38.85 133.921 39.35C133.921 39.7667 134.029 40.1 134.246 40.35C134.479 40.5833 134.813 40.7833 135.246 40.95C135.696 41.1167 136.238 41.3 136.871 41.5C137.854 41.7833 138.704 42.0667 139.421 42.35C140.154 42.6333 140.721 43 141.121 43.45C141.521 43.9 141.721 44.525 141.721 45.325C141.721 46.5583 141.254 47.525 140.321 48.225C139.388 48.9083 138.154 49.25 136.621 49.25ZM150.053 49.25C149.07 49.25 148.178 49.075 147.378 48.725C146.578 48.3583 145.886 47.8667 145.303 47.25C144.72 46.6167 144.27 45.8917 143.953 45.075C143.636 44.2583 143.478 43.4 143.478 42.5C143.478 41.5833 143.636 40.7167 143.953 39.9C144.27 39.0833 144.72 38.3667 145.303 37.75C145.886 37.1167 146.578 36.625 147.378 36.275C148.195 35.9083 149.086 35.725 150.053 35.725C151.036 35.725 151.928 35.9083 152.728 36.275C153.528 36.625 154.22 37.1167 154.803 37.75C155.403 38.3667 155.861 39.0833 156.178 39.9C156.495 40.7167 156.653 41.5833 156.653 42.5C156.653 43.4 156.495 44.2583 156.178 45.075C155.861 45.8917 155.411 46.6167 154.828 47.25C154.245 47.8667 153.545 48.3583 152.728 48.725C151.928 49.075 151.036 49.25 150.053 49.25ZM145.728 42.525C145.728 43.425 145.92 44.2417 146.303 44.975C146.703 45.7083 147.228 46.2917 147.878 46.725C148.528 47.1417 149.253 47.35 150.053 47.35C150.853 47.35 151.578 47.1333 152.228 46.7C152.895 46.2667 153.42 45.6833 153.803 44.95C154.203 44.2 154.403 43.375 154.403 42.475C154.403 41.575 154.203 40.7583 153.803 40.025C153.42 39.2917 152.895 38.7083 152.228 38.275C151.578 37.8417 150.853 37.625 150.053 37.625C149.253 37.625 148.528 37.85 147.878 38.3C147.228 38.7333 146.703 39.3167 146.303 40.05C145.92 40.7833 145.728 41.6083 145.728 42.525ZM159.194 43.775V35.95H161.394V43.35C161.394 44.6833 161.627 45.6833 162.094 46.35C162.561 47.0167 163.252 47.35 164.169 47.35C164.769 47.35 165.344 47.225 165.894 46.975C166.461 46.7083 166.969 46.3333 167.419 45.85C167.869 45.3667 168.219 44.7917 168.469 44.125V35.95H170.669V46.5C170.669 46.7667 170.719 46.9667 170.819 47.1C170.936 47.2167 171.119 47.2833 171.369 47.3V49C171.119 49.0333 170.919 49.05 170.769 49.05C170.636 49.0667 170.502 49.075 170.369 49.075C169.952 49.075 169.594 48.95 169.294 48.7C168.994 48.4333 168.836 48.1083 168.819 47.725L168.769 46.2C168.202 47.1667 167.436 47.9167 166.469 48.45C165.519 48.9833 164.477 49.25 163.344 49.25C161.977 49.25 160.944 48.7917 160.244 47.875C159.544 46.9417 159.194 45.575 159.194 43.775ZM181.234 37.875C180.134 37.8917 179.159 38.175 178.309 38.725C177.475 39.2583 176.884 40 176.534 40.95V49H174.334V35.95H176.384V38.975C176.834 38.075 177.425 37.35 178.159 36.8C178.909 36.2333 179.692 35.9167 180.509 35.85C180.675 35.85 180.817 35.85 180.934 35.85C181.05 35.85 181.15 35.8583 181.234 35.875V37.875ZM188.873 49.25C187.89 49.25 186.99 49.075 186.173 48.725C185.373 48.3583 184.673 47.8583 184.073 47.225C183.49 46.5917 183.032 45.8667 182.698 45.05C182.382 44.2333 182.223 43.3667 182.223 42.45C182.223 41.2167 182.498 40.0917 183.048 39.075C183.598 38.0583 184.373 37.25 185.373 36.65C186.373 36.0333 187.532 35.725 188.848 35.725C190.132 35.725 191.248 36.0167 192.198 36.6C193.165 37.1667 193.882 37.9333 194.348 38.9L192.198 39.575C191.865 38.9583 191.398 38.4833 190.798 38.15C190.198 37.8 189.532 37.625 188.798 37.625C187.998 37.625 187.265 37.8333 186.598 38.25C185.948 38.6667 185.432 39.2417 185.048 39.975C184.665 40.6917 184.473 41.5167 184.473 42.45C184.473 43.3667 184.665 44.2 185.048 44.95C185.448 45.6833 185.973 46.2667 186.623 46.7C187.29 47.1333 188.023 47.35 188.823 47.35C189.34 47.35 189.832 47.2583 190.298 47.075C190.782 46.8917 191.198 46.65 191.548 46.35C191.915 46.0333 192.165 45.6917 192.298 45.325L194.448 45.975C194.182 46.6083 193.773 47.175 193.223 47.675C192.69 48.1583 192.048 48.5417 191.298 48.825C190.565 49.1083 189.757 49.25 188.873 49.25ZM202.594 49.25C201.611 49.25 200.711 49.075 199.894 48.725C199.094 48.3583 198.394 47.8667 197.794 47.25C197.211 46.6167 196.752 45.8917 196.419 45.075C196.102 44.2583 195.944 43.3917 195.944 42.475C195.944 41.2417 196.227 40.1167 196.794 39.1C197.361 38.0833 198.144 37.2667 199.144 36.65C200.161 36.0333 201.319 35.725 202.619 35.725C203.936 35.725 205.077 36.0417 206.044 36.675C207.027 37.2917 207.786 38.1083 208.319 39.125C208.869 40.125 209.144 41.2083 209.144 42.375C209.144 42.5417 209.136 42.7083 209.119 42.875C209.119 43.025 209.111 43.1417 209.094 43.225H198.269C198.336 44.075 198.569 44.8333 198.969 45.5C199.386 46.15 199.919 46.6667 200.569 47.05C201.219 47.4167 201.919 47.6 202.669 47.6C203.469 47.6 204.219 47.4 204.919 47C205.636 46.6 206.127 46.075 206.394 45.425L208.294 45.95C208.011 46.5833 207.586 47.15 207.019 47.65C206.469 48.15 205.811 48.5417 205.044 48.825C204.294 49.1083 203.477 49.25 202.594 49.25ZM198.194 41.7H207.094C207.027 40.85 206.786 40.1 206.369 39.45C205.952 38.8 205.419 38.2917 204.769 37.925C204.119 37.5583 203.402 37.375 202.619 37.375C201.852 37.375 201.144 37.5583 200.494 37.925C199.844 38.2917 199.311 38.8 198.894 39.45C198.494 40.1 198.261 40.85 198.194 41.7ZM216.064 49.25C214.981 49.25 213.964 49.075 213.014 48.725C212.064 48.3583 211.248 47.8167 210.564 47.1L211.414 45.55C212.164 46.25 212.914 46.75 213.664 47.05C214.414 47.35 215.181 47.5 215.964 47.5C216.864 47.5 217.598 47.3333 218.164 47C218.731 46.65 219.014 46.1417 219.014 45.475C219.014 44.9917 218.864 44.6333 218.564 44.4C218.281 44.1667 217.873 43.975 217.339 43.825C216.806 43.6583 216.173 43.475 215.439 43.275C214.539 43.0083 213.781 42.725 213.164 42.425C212.548 42.125 212.081 41.75 211.764 41.3C211.448 40.85 211.289 40.2833 211.289 39.6C211.289 38.7667 211.506 38.0667 211.939 37.5C212.373 36.9167 212.964 36.475 213.714 36.175C214.481 35.875 215.348 35.725 216.314 35.725C217.281 35.725 218.156 35.875 218.939 36.175C219.723 36.475 220.398 36.9167 220.964 37.5L219.964 39.025C219.448 38.4917 218.881 38.1 218.264 37.85C217.648 37.5833 216.956 37.45 216.189 37.45C215.739 37.45 215.298 37.5083 214.864 37.625C214.431 37.725 214.073 37.9167 213.789 38.2C213.506 38.4667 213.364 38.85 213.364 39.35C213.364 39.7667 213.473 40.1 213.689 40.35C213.923 40.5833 214.256 40.7833 214.689 40.95C215.139 41.1167 215.681 41.3 216.314 41.5C217.298 41.7833 218.148 42.0667 218.864 42.35C219.598 42.6333 220.164 43 220.564 43.45C220.964 43.9 221.164 44.525 221.164 45.325C221.164 46.5583 220.698 47.525 219.764 48.225C218.831 48.9083 217.598 49.25 216.064 49.25ZM230.82 49V37.675H229.045V35.95H230.82V35.675C230.82 34.6083 230.978 33.6917 231.295 32.925C231.628 32.1417 232.095 31.5417 232.695 31.125C233.295 30.7083 234.003 30.5 234.82 30.5C235.336 30.5 235.845 30.575 236.345 30.725C236.845 30.8583 237.295 31.05 237.695 31.3L237.145 32.925C236.911 32.7583 236.62 32.625 236.27 32.525C235.936 32.425 235.603 32.375 235.27 32.375C234.553 32.375 233.995 32.6583 233.595 33.225C233.211 33.775 233.02 34.5667 233.02 35.6V35.95H236.495V37.675H233.02V49H230.82ZM244.072 49.25C243.088 49.25 242.197 49.075 241.397 48.725C240.597 48.3583 239.905 47.8667 239.322 47.25C238.738 46.6167 238.288 45.8917 237.972 45.075C237.655 44.2583 237.497 43.4 237.497 42.5C237.497 41.5833 237.655 40.7167 237.972 39.9C238.288 39.0833 238.738 38.3667 239.322 37.75C239.905 37.1167 240.597 36.625 241.397 36.275C242.213 35.9083 243.105 35.725 244.072 35.725C245.055 35.725 245.947 35.9083 246.747 36.275C247.547 36.625 248.238 37.1167 248.822 37.75C249.422 38.3667 249.88 39.0833 250.197 39.9C250.513 40.7167 250.672 41.5833 250.672 42.5C250.672 43.4 250.513 44.2583 250.197 45.075C249.88 45.8917 249.43 46.6167 248.847 47.25C248.263 47.8667 247.563 48.3583 246.747 48.725C245.947 49.075 245.055 49.25 244.072 49.25ZM239.747 42.525C239.747 43.425 239.938 44.2417 240.322 44.975C240.722 45.7083 241.247 46.2917 241.897 46.725C242.547 47.1417 243.272 47.35 244.072 47.35C244.872 47.35 245.597 47.1333 246.247 46.7C246.913 46.2667 247.438 45.6833 247.822 44.95C248.222 44.2 248.422 43.375 248.422 42.475C248.422 41.575 248.222 40.7583 247.822 40.025C247.438 39.2917 246.913 38.7083 246.247 38.275C245.597 37.8417 244.872 37.625 244.072 37.625C243.272 37.625 242.547 37.85 241.897 38.3C241.247 38.7333 240.722 39.3167 240.322 40.05C239.938 40.7833 239.747 41.6083 239.747 42.525ZM260.238 37.875C259.138 37.8917 258.163 38.175 257.313 38.725C256.479 39.2583 255.888 40 255.538 40.95V49H253.338V35.95H255.388V38.975C255.838 38.075 256.429 37.35 257.163 36.8C257.913 36.2333 258.696 35.9167 259.513 35.85C259.679 35.85 259.821 35.85 259.938 35.85C260.054 35.85 260.154 35.8583 260.238 35.875V37.875ZM267.132 45.225C267.132 44.3917 267.365 43.675 267.832 43.075C268.315 42.4583 268.974 41.9833 269.807 41.65C270.64 41.3167 271.607 41.15 272.707 41.15C273.29 41.15 273.907 41.2 274.557 41.3C275.207 41.3833 275.782 41.5167 276.282 41.7V40.75C276.282 39.75 275.982 38.9667 275.382 38.4C274.782 37.8167 273.932 37.525 272.832 37.525C272.115 37.525 271.424 37.6583 270.757 37.925C270.107 38.175 269.415 38.5417 268.682 39.025L267.882 37.475C268.732 36.8917 269.582 36.4583 270.432 36.175C271.282 35.875 272.165 35.725 273.082 35.725C274.749 35.725 276.065 36.1917 277.032 37.125C277.999 38.0417 278.482 39.325 278.482 40.975V46.5C278.482 46.7667 278.532 46.9667 278.632 47.1C278.749 47.2167 278.932 47.2833 279.182 47.3V49C278.965 49.0333 278.774 49.0583 278.607 49.075C278.457 49.0917 278.332 49.1 278.232 49.1C277.715 49.1 277.324 48.9583 277.057 48.675C276.807 48.3917 276.665 48.0917 276.632 47.775L276.582 46.95C276.015 47.6833 275.274 48.25 274.357 48.65C273.44 49.05 272.532 49.25 271.632 49.25C270.765 49.25 269.99 49.075 269.307 48.725C268.624 48.3583 268.09 47.875 267.707 47.275C267.324 46.6583 267.132 45.975 267.132 45.225ZM275.632 46.15C275.832 45.9167 275.99 45.6833 276.107 45.45C276.224 45.2 276.282 44.9917 276.282 44.825V43.2C275.765 43 275.224 42.85 274.657 42.75C274.09 42.6333 273.532 42.575 272.982 42.575C271.865 42.575 270.957 42.8 270.257 43.25C269.574 43.6833 269.232 44.2833 269.232 45.05C269.232 45.4667 269.34 45.875 269.557 46.275C269.79 46.6583 270.124 46.975 270.557 47.225C271.007 47.475 271.557 47.6 272.207 47.6C272.89 47.6 273.54 47.4667 274.157 47.2C274.774 46.9167 275.265 46.5667 275.632 46.15ZM294.098 49.25C293.115 49.25 292.215 49.075 291.398 48.725C290.598 48.3583 289.898 47.8583 289.298 47.225C288.715 46.5917 288.256 45.8667 287.923 45.05C287.606 44.2333 287.448 43.3667 287.448 42.45C287.448 41.2167 287.723 40.0917 288.273 39.075C288.823 38.0583 289.598 37.25 290.598 36.65C291.598 36.0333 292.756 35.725 294.073 35.725C295.356 35.725 296.473 36.0167 297.423 36.6C298.39 37.1667 299.106 37.9333 299.573 38.9L297.423 39.575C297.09 38.9583 296.623 38.4833 296.023 38.15C295.423 37.8 294.756 37.625 294.023 37.625C293.223 37.625 292.49 37.8333 291.823 38.25C291.173 38.6667 290.656 39.2417 290.273 39.975C289.89 40.6917 289.698 41.5167 289.698 42.45C289.698 43.3667 289.89 44.2 290.273 44.95C290.673 45.6833 291.198 46.2667 291.848 46.7C292.515 47.1333 293.248 47.35 294.048 47.35C294.565 47.35 295.056 47.2583 295.523 47.075C296.006 46.8917 296.423 46.65 296.773 46.35C297.14 46.0333 297.39 45.6917 297.523 45.325L299.673 45.975C299.406 46.6083 298.998 47.175 298.448 47.675C297.915 48.1583 297.273 48.5417 296.523 48.825C295.79 49.1083 294.981 49.25 294.098 49.25ZM302.216 30.75H304.416V45.625C304.416 46.3417 304.516 46.7833 304.716 46.95C304.916 47.1167 305.157 47.2 305.441 47.2C305.791 47.2 306.124 47.1667 306.441 47.1C306.757 47.0167 307.024 46.9333 307.241 46.85L307.591 48.65C307.224 48.8 306.791 48.925 306.291 49.025C305.791 49.125 305.349 49.175 304.966 49.175C304.116 49.175 303.441 48.9333 302.941 48.45C302.457 47.9667 302.216 47.2917 302.216 46.425V30.75ZM315.094 49.25C314.111 49.25 313.211 49.075 312.394 48.725C311.594 48.3583 310.894 47.8667 310.294 47.25C309.711 46.6167 309.252 45.8917 308.919 45.075C308.602 44.2583 308.444 43.3917 308.444 42.475C308.444 41.2417 308.727 40.1167 309.294 39.1C309.861 38.0833 310.644 37.2667 311.644 36.65C312.661 36.0333 313.819 35.725 315.119 35.725C316.436 35.725 317.577 36.0417 318.544 36.675C319.527 37.2917 320.286 38.1083 320.819 39.125C321.369 40.125 321.644 41.2083 321.644 42.375C321.644 42.5417 321.636 42.7083 321.619 42.875C321.619 43.025 321.611 43.1417 321.594 43.225H310.769C310.836 44.075 311.069 44.8333 311.469 45.5C311.886 46.15 312.419 46.6667 313.069 47.05C313.719 47.4167 314.419 47.6 315.169 47.6C315.969 47.6 316.719 47.4 317.419 47C318.136 46.6 318.627 46.075 318.894 45.425L320.794 45.95C320.511 46.5833 320.086 47.15 319.519 47.65C318.969 48.15 318.311 48.5417 317.544 48.825C316.794 49.1083 315.977 49.25 315.094 49.25ZM310.694 41.7H319.594C319.527 40.85 319.286 40.1 318.869 39.45C318.452 38.8 317.919 38.2917 317.269 37.925C316.619 37.5583 315.902 37.375 315.119 37.375C314.352 37.375 313.644 37.5583 312.994 37.925C312.344 38.2917 311.811 38.8 311.394 39.45C310.994 40.1 310.761 40.85 310.694 41.7ZM323.064 45.225C323.064 44.3917 323.298 43.675 323.764 43.075C324.248 42.4583 324.906 41.9833 325.739 41.65C326.573 41.3167 327.539 41.15 328.639 41.15C329.223 41.15 329.839 41.2 330.489 41.3C331.139 41.3833 331.714 41.5167 332.214 41.7V40.75C332.214 39.75 331.914 38.9667 331.314 38.4C330.714 37.8167 329.864 37.525 328.764 37.525C328.048 37.525 327.356 37.6583 326.689 37.925C326.039 38.175 325.348 38.5417 324.614 39.025L323.814 37.475C324.664 36.8917 325.514 36.4583 326.364 36.175C327.214 35.875 328.098 35.725 329.014 35.725C330.681 35.725 331.998 36.1917 332.964 37.125C333.931 38.0417 334.414 39.325 334.414 40.975V46.5C334.414 46.7667 334.464 46.9667 334.564 47.1C334.681 47.2167 334.864 47.2833 335.114 47.3V49C334.898 49.0333 334.706 49.0583 334.539 49.075C334.389 49.0917 334.264 49.1 334.164 49.1C333.648 49.1 333.256 48.9583 332.989 48.675C332.739 48.3917 332.598 48.0917 332.564 47.775L332.514 46.95C331.948 47.6833 331.206 48.25 330.289 48.65C329.373 49.05 328.464 49.25 327.564 49.25C326.698 49.25 325.923 49.075 325.239 48.725C324.556 48.3583 324.023 47.875 323.639 47.275C323.256 46.6583 323.064 45.975 323.064 45.225ZM331.564 46.15C331.764 45.9167 331.923 45.6833 332.039 45.45C332.156 45.2 332.214 44.9917 332.214 44.825V43.2C331.698 43 331.156 42.85 330.589 42.75C330.023 42.6333 329.464 42.575 328.914 42.575C327.798 42.575 326.889 42.8 326.189 43.25C325.506 43.6833 325.164 44.2833 325.164 45.05C325.164 45.4667 325.273 45.875 325.489 46.275C325.723 46.6583 326.056 46.975 326.489 47.225C326.939 47.475 327.489 47.6 328.139 47.6C328.823 47.6 329.473 47.4667 330.089 47.2C330.706 46.9167 331.198 46.5667 331.564 46.15ZM349.257 49H347.057V41.7C347.057 40.3167 346.841 39.3083 346.407 38.675C345.991 38.025 345.349 37.7 344.482 37.7C343.882 37.7 343.282 37.85 342.682 38.15C342.099 38.45 341.574 38.8583 341.107 39.375C340.657 39.875 340.332 40.4583 340.132 41.125V49H337.932V35.95H339.932V38.75C340.282 38.1333 340.732 37.6 341.282 37.15C341.832 36.7 342.457 36.35 343.157 36.1C343.857 35.85 344.591 35.725 345.357 35.725C346.107 35.725 346.732 35.8667 347.232 36.15C347.749 36.4167 348.149 36.8 348.432 37.3C348.732 37.7833 348.941 38.3583 349.057 39.025C349.191 39.6917 349.257 40.4167 349.257 41.2V49ZM358.453 49.25C357.47 49.25 356.57 49.075 355.753 48.725C354.953 48.3583 354.253 47.8667 353.653 47.25C353.07 46.6167 352.612 45.8917 352.278 45.075C351.962 44.2583 351.803 43.3917 351.803 42.475C351.803 41.2417 352.087 40.1167 352.653 39.1C353.22 38.0833 354.003 37.2667 355.003 36.65C356.02 36.0333 357.178 35.725 358.478 35.725C359.795 35.725 360.937 36.0417 361.903 36.675C362.887 37.2917 363.645 38.1083 364.178 39.125C364.728 40.125 365.003 41.2083 365.003 42.375C365.003 42.5417 364.995 42.7083 364.978 42.875C364.978 43.025 364.97 43.1417 364.953 43.225H354.128C354.195 44.075 354.428 44.8333 354.828 45.5C355.245 46.15 355.778 46.6667 356.428 47.05C357.078 47.4167 357.778 47.6 358.528 47.6C359.328 47.6 360.078 47.4 360.778 47C361.495 46.6 361.987 46.075 362.253 45.425L364.153 45.95C363.87 46.5833 363.445 47.15 362.878 47.65C362.328 48.15 361.67 48.5417 360.903 48.825C360.153 49.1083 359.337 49.25 358.453 49.25ZM354.053 41.7H362.953C362.887 40.85 362.645 40.1 362.228 39.45C361.812 38.8 361.278 38.2917 360.628 37.925C359.978 37.5583 359.262 37.375 358.478 37.375C357.712 37.375 357.003 37.5583 356.353 37.925C355.703 38.2917 355.17 38.8 354.753 39.45C354.353 40.1 354.12 40.85 354.053 41.7ZM374.349 37.875C373.249 37.8917 372.274 38.175 371.424 38.725C370.59 39.2583 369.999 40 369.649 40.95V49H367.449V35.95H369.499V38.975C369.949 38.075 370.54 37.35 371.274 36.8C372.024 36.2333 372.807 35.9167 373.624 35.85C373.79 35.85 373.932 35.85 374.049 35.85C374.165 35.85 374.265 35.8583 374.349 35.875V37.875ZM382.343 51.025L382.843 48.8H382.093V46.2H384.168V48.8L383.418 51.025H382.343ZM400.615 48.35C400.432 48.4333 400.182 48.5417 399.865 48.675C399.548 48.8083 399.182 48.925 398.765 49.025C398.348 49.125 397.907 49.175 397.44 49.175C396.907 49.175 396.415 49.0833 395.965 48.9C395.515 48.7 395.157 48.4 394.89 48C394.623 47.5833 394.49 47.0667 394.49 46.45V37.675H392.715V35.95H394.49V31.6H396.69V35.95H399.615V37.675H396.69V45.775C396.723 46.2417 396.882 46.5917 397.165 46.825C397.448 47.0417 397.782 47.15 398.165 47.15C398.598 47.15 398.998 47.075 399.365 46.925C399.732 46.775 399.973 46.6667 400.09 46.6L400.615 48.35ZM408.258 49.25C407.275 49.25 406.375 49.075 405.558 48.725C404.758 48.3583 404.058 47.8667 403.458 47.25C402.875 46.6167 402.416 45.8917 402.083 45.075C401.766 44.2583 401.608 43.3917 401.608 42.475C401.608 41.2417 401.891 40.1167 402.458 39.1C403.025 38.0833 403.808 37.2667 404.808 36.65C405.825 36.0333 406.983 35.725 408.283 35.725C409.6 35.725 410.741 36.0417 411.708 36.675C412.691 37.2917 413.45 38.1083 413.983 39.125C414.533 40.125 414.808 41.2083 414.808 42.375C414.808 42.5417 414.8 42.7083 414.783 42.875C414.783 43.025 414.775 43.1417 414.758 43.225H403.933C404 44.075 404.233 44.8333 404.633 45.5C405.05 46.15 405.583 46.6667 406.233 47.05C406.883 47.4167 407.583 47.6 408.333 47.6C409.133 47.6 409.883 47.4 410.583 47C411.3 46.6 411.791 46.075 412.058 45.425L413.958 45.95C413.675 46.5833 413.25 47.15 412.683 47.65C412.133 48.15 411.475 48.5417 410.708 48.825C409.958 49.1083 409.141 49.25 408.258 49.25ZM403.858 41.7H412.758C412.691 40.85 412.45 40.1 412.033 39.45C411.616 38.8 411.083 38.2917 410.433 37.925C409.783 37.5583 409.066 37.375 408.283 37.375C407.516 37.375 406.808 37.5583 406.158 37.925C405.508 38.2917 404.975 38.8 404.558 39.45C404.158 40.1 403.925 40.85 403.858 41.7ZM423.029 49.25C422.045 49.25 421.145 49.075 420.329 48.725C419.529 48.3583 418.829 47.8583 418.229 47.225C417.645 46.5917 417.187 45.8667 416.854 45.05C416.537 44.2333 416.379 43.3667 416.379 42.45C416.379 41.2167 416.654 40.0917 417.204 39.075C417.754 38.0583 418.529 37.25 419.529 36.65C420.529 36.0333 421.687 35.725 423.004 35.725C424.287 35.725 425.404 36.0167 426.354 36.6C427.32 37.1667 428.037 37.9333 428.504 38.9L426.354 39.575C426.02 38.9583 425.554 38.4833 424.954 38.15C424.354 37.8 423.687 37.625 422.954 37.625C422.154 37.625 421.42 37.8333 420.754 38.25C420.104 38.6667 419.587 39.2417 419.204 39.975C418.82 40.6917 418.629 41.5167 418.629 42.45C418.629 43.3667 418.82 44.2 419.204 44.95C419.604 45.6833 420.129 46.2667 420.779 46.7C421.445 47.1333 422.179 47.35 422.979 47.35C423.495 47.35 423.987 47.2583 424.454 47.075C424.937 46.8917 425.354 46.65 425.704 46.35C426.07 46.0333 426.32 45.6917 426.454 45.325L428.604 45.975C428.337 46.6083 427.929 47.175 427.379 47.675C426.845 48.1583 426.204 48.5417 425.454 48.825C424.72 49.1083 423.912 49.25 423.029 49.25ZM442.421 49H440.221V41.7C440.221 40.3667 439.98 39.3667 439.496 38.7C439.03 38.0333 438.355 37.7 437.471 37.7C436.905 37.7 436.33 37.85 435.746 38.15C435.18 38.45 434.68 38.8583 434.246 39.375C433.813 39.875 433.496 40.4583 433.296 41.125V49H431.096V30.75H433.296V38.75C433.813 37.8167 434.513 37.0833 435.396 36.55C436.296 36 437.263 35.725 438.296 35.725C439.08 35.725 439.73 35.8667 440.246 36.15C440.78 36.4167 441.205 36.8 441.521 37.3C441.838 37.8 442.063 38.3833 442.196 39.05C442.346 39.7 442.421 40.4167 442.421 41.2V49ZM445.667 43.175V41.175H453.042V43.175H445.667ZM455.564 42.5C455.564 41.2667 455.814 40.1417 456.314 39.125C456.83 38.0917 457.53 37.2667 458.414 36.65C459.314 36.0333 460.339 35.725 461.489 35.725C462.539 35.725 463.48 36 464.314 36.55C465.147 37.1 465.797 37.7667 466.264 38.55V30.75H468.464V46.5C468.464 46.7667 468.514 46.9667 468.614 47.1C468.73 47.2167 468.914 47.2833 469.164 47.3V49C468.747 49.0667 468.422 49.1 468.189 49.1C467.755 49.1 467.372 48.95 467.039 48.65C466.722 48.35 466.564 48.0167 466.564 47.65V46.55C466.047 47.3833 465.355 48.0417 464.489 48.525C463.622 49.0083 462.722 49.25 461.789 49.25C460.889 49.25 460.055 49.075 459.289 48.725C458.539 48.3583 457.88 47.8583 457.314 47.225C456.764 46.5917 456.33 45.875 456.014 45.075C455.714 44.2583 455.564 43.4 455.564 42.5ZM466.264 44.425V40.675C466.064 40.1083 465.739 39.6 465.289 39.15C464.839 38.6833 464.33 38.3167 463.764 38.05C463.214 37.7667 462.664 37.625 462.114 37.625C461.464 37.625 460.872 37.7667 460.339 38.05C459.822 38.3167 459.372 38.6833 458.989 39.15C458.622 39.6 458.339 40.1167 458.139 40.7C457.939 41.2833 457.839 41.8917 457.839 42.525C457.839 43.175 457.947 43.7917 458.164 44.375C458.397 44.9583 458.714 45.475 459.114 45.925C459.53 46.375 460.005 46.725 460.539 46.975C461.089 47.225 461.68 47.35 462.314 47.35C462.714 47.35 463.122 47.275 463.539 47.125C463.972 46.975 464.38 46.7667 464.764 46.5C465.147 46.2333 465.472 45.925 465.739 45.575C466.005 45.2083 466.18 44.825 466.264 44.425ZM479.036 37.875C477.936 37.8917 476.961 38.175 476.111 38.725C475.278 39.2583 474.686 40 474.336 40.95V49H472.136V35.95H474.186V38.975C474.636 38.075 475.228 37.35 475.961 36.8C476.711 36.2333 477.495 35.9167 478.311 35.85C478.478 35.85 478.62 35.85 478.736 35.85C478.853 35.85 478.953 35.8583 479.036 35.875V37.875ZM481.218 49V35.95H483.418V49H481.218ZM481.218 33.5V30.75H483.418V33.5H481.218ZM490.73 49L485.605 35.95H487.905L492.005 46.9L496.105 35.95H498.255L493.13 49H490.73ZM505.792 49.25C504.809 49.25 503.909 49.075 503.092 48.725C502.292 48.3583 501.592 47.8667 500.992 47.25C500.409 46.6167 499.951 45.8917 499.617 45.075C499.301 44.2583 499.142 43.3917 499.142 42.475C499.142 41.2417 499.426 40.1167 499.992 39.1C500.559 38.0833 501.342 37.2667 502.342 36.65C503.359 36.0333 504.517 35.725 505.817 35.725C507.134 35.725 508.276 36.0417 509.242 36.675C510.226 37.2917 510.984 38.1083 511.517 39.125C512.067 40.125 512.342 41.2083 512.342 42.375C512.342 42.5417 512.334 42.7083 512.317 42.875C512.317 43.025 512.309 43.1417 512.292 43.225H501.467C501.534 44.075 501.767 44.8333 502.167 45.5C502.584 46.15 503.117 46.6667 503.767 47.05C504.417 47.4167 505.117 47.6 505.867 47.6C506.667 47.6 507.417 47.4 508.117 47C508.834 46.6 509.326 46.075 509.592 45.425L511.492 45.95C511.209 46.5833 510.784 47.15 510.217 47.65C509.667 48.15 509.009 48.5417 508.242 48.825C507.492 49.1083 506.676 49.25 505.792 49.25ZM501.392 41.7H510.292C510.226 40.85 509.984 40.1 509.567 39.45C509.151 38.8 508.617 38.2917 507.967 37.925C507.317 37.5583 506.601 37.375 505.817 37.375C505.051 37.375 504.342 37.5583 503.692 37.925C503.042 38.2917 502.509 38.8 502.092 39.45C501.692 40.1 501.459 40.85 501.392 41.7ZM526.113 49H523.913V41.7C523.913 40.3167 523.696 39.3083 523.263 38.675C522.846 38.025 522.204 37.7 521.338 37.7C520.738 37.7 520.138 37.85 519.538 38.15C518.954 38.45 518.429 38.8583 517.963 39.375C517.513 39.875 517.188 40.4583 516.988 41.125V49H514.788V35.95H516.788V38.75C517.138 38.1333 517.588 37.6 518.138 37.15C518.688 36.7 519.313 36.35 520.013 36.1C520.713 35.85 521.446 35.725 522.213 35.725C522.963 35.725 523.588 35.8667 524.088 36.15C524.604 36.4167 525.004 36.8 525.288 37.3C525.588 37.7833 525.796 38.3583 525.913 39.025C526.046 39.6917 526.113 40.4167 526.113 41.2V49ZM536.557 49V37.675H534.782V35.95H536.557V35.675C536.557 34.6083 536.715 33.6917 537.032 32.925C537.365 32.1417 537.832 31.5417 538.432 31.125C539.032 30.7083 539.74 30.5 540.557 30.5C541.074 30.5 541.582 30.575 542.082 30.725C542.582 30.8583 543.032 31.05 543.432 31.3L542.882 32.925C542.649 32.7583 542.357 32.625 542.007 32.525C541.674 32.425 541.34 32.375 541.007 32.375C540.29 32.375 539.732 32.6583 539.332 33.225C538.949 33.775 538.757 34.5667 538.757 35.6V35.95H542.232V37.675H538.757V49H536.557ZM544.301 43.775V35.95H546.501V43.35C546.501 44.6833 546.735 45.6833 547.201 46.35C547.668 47.0167 548.36 47.35 549.276 47.35C549.876 47.35 550.451 47.225 551.001 46.975C551.568 46.7083 552.076 46.3333 552.526 45.85C552.976 45.3667 553.326 44.7917 553.576 44.125V35.95H555.776V46.5C555.776 46.7667 555.826 46.9667 555.926 47.1C556.043 47.2167 556.226 47.2833 556.476 47.3V49C556.226 49.0333 556.026 49.05 555.876 49.05C555.743 49.0667 555.61 49.075 555.476 49.075C555.06 49.075 554.701 48.95 554.401 48.7C554.101 48.4333 553.943 48.1083 553.926 47.725L553.876 46.2C553.31 47.1667 552.543 47.9167 551.576 48.45C550.626 48.9833 549.585 49.25 548.451 49.25C547.085 49.25 546.051 48.7917 545.351 47.875C544.651 46.9417 544.301 45.575 544.301 43.775ZM566.191 48.35C566.008 48.4333 565.758 48.5417 565.441 48.675C565.124 48.8083 564.758 48.925 564.341 49.025C563.924 49.125 563.483 49.175 563.016 49.175C562.483 49.175 561.991 49.0833 561.541 48.9C561.091 48.7 560.733 48.4 560.466 48C560.199 47.5833 560.066 47.0667 560.066 46.45V37.675H558.291V35.95H560.066V31.6H562.266V35.95H565.191V37.675H562.266V45.775C562.299 46.2417 562.458 46.5917 562.741 46.825C563.024 47.0417 563.358 47.15 563.741 47.15C564.174 47.15 564.574 47.075 564.941 46.925C565.308 46.775 565.549 46.6667 565.666 46.6L566.191 48.35ZM568.105 43.775V35.95H570.305V43.35C570.305 44.6833 570.538 45.6833 571.005 46.35C571.472 47.0167 572.163 47.35 573.08 47.35C573.68 47.35 574.255 47.225 574.805 46.975C575.372 46.7083 575.88 46.3333 576.33 45.85C576.78 45.3667 577.13 44.7917 577.38 44.125V35.95H579.58V46.5C579.58 46.7667 579.63 46.9667 579.73 47.1C579.847 47.2167 580.03 47.2833 580.28 47.3V49C580.03 49.0333 579.83 49.05 579.68 49.05C579.547 49.0667 579.413 49.075 579.28 49.075C578.863 49.075 578.505 48.95 578.205 48.7C577.905 48.4333 577.747 48.1083 577.73 47.725L577.68 46.2C577.113 47.1667 576.347 47.9167 575.38 48.45C574.43 48.9833 573.388 49.25 572.255 49.25C570.888 49.25 569.855 48.7917 569.155 47.875C568.455 46.9417 568.105 45.575 568.105 43.775ZM590.145 37.875C589.045 37.8917 588.07 38.175 587.22 38.725C586.386 39.2583 585.795 40 585.445 40.95V49H583.245V35.95H585.295V38.975C585.745 38.075 586.336 37.35 587.07 36.8C587.82 36.2333 588.603 35.9167 589.42 35.85C589.586 35.85 589.728 35.85 589.845 35.85C589.961 35.85 590.061 35.8583 590.145 35.875V37.875ZM597.784 49.25C596.801 49.25 595.901 49.075 595.084 48.725C594.284 48.3583 593.584 47.8667 592.984 47.25C592.401 46.6167 591.943 45.8917 591.609 45.075C591.293 44.2583 591.134 43.3917 591.134 42.475C591.134 41.2417 591.418 40.1167 591.984 39.1C592.551 38.0833 593.334 37.2667 594.334 36.65C595.351 36.0333 596.509 35.725 597.809 35.725C599.126 35.725 600.268 36.0417 601.234 36.675C602.218 37.2917 602.976 38.1083 603.509 39.125C604.059 40.125 604.334 41.2083 604.334 42.375C604.334 42.5417 604.326 42.7083 604.309 42.875C604.309 43.025 604.301 43.1417 604.284 43.225H593.459C593.526 44.075 593.759 44.8333 594.159 45.5C594.576 46.15 595.109 46.6667 595.759 47.05C596.409 47.4167 597.109 47.6 597.859 47.6C598.659 47.6 599.409 47.4 600.109 47C600.826 46.6 601.318 46.075 601.584 45.425L603.484 45.95C603.201 46.5833 602.776 47.15 602.209 47.65C601.659 48.15 601.001 48.5417 600.234 48.825C599.484 49.1083 598.668 49.25 597.784 49.25ZM593.384 41.7H602.284C602.218 40.85 601.976 40.1 601.559 39.45C601.143 38.8 600.609 38.2917 599.959 37.925C599.309 37.5583 598.593 37.375 597.809 37.375C597.043 37.375 596.334 37.5583 595.684 37.925C595.034 38.2917 594.501 38.8 594.084 39.45C593.684 40.1 593.451 40.85 593.384 41.7ZM606.605 49V46.2H608.455V49H606.605Z" fill="#CFCFCF"/>
</svg>
